<mxfile host="65bd71144e" pages="4">
    <diagram id="4a7-2WE8xKxB6OBSDGvC" name="Fetch Unit">
        <mxGraphModel dx="558" dy="1412" grid="1" gridSize="10" guides="1" tooltips="1" connect="1" arrows="1" fold="1" page="0" pageScale="1" pageWidth="827" pageHeight="1169" math="0" shadow="0">
            <root>
                <mxCell id="0"/>
                <mxCell id="1" parent="0"/>
                <mxCell id="zBXeJww9K7jumWJN20Hu-1" value="" style="rounded=0;whiteSpace=wrap;html=1;" parent="1" vertex="1">
                    <mxGeometry x="100" y="20" width="90" height="140" as="geometry"/>
                </mxCell>
                <mxCell id="zBXeJww9K7jumWJN20Hu-2" value="&lt;font style=&quot;font-size: 6px;&quot;&gt;program_counter&lt;/font&gt;" style="text;html=1;strokeColor=none;fillColor=none;align=center;verticalAlign=middle;whiteSpace=wrap;rounded=0;" parent="1" vertex="1">
                    <mxGeometry x="50" y="30" width="50" height="20" as="geometry"/>
                </mxCell>
                <mxCell id="zBXeJww9K7jumWJN20Hu-3" value="&lt;font style=&quot;font-size: 6px;&quot;&gt;to_ir&lt;/font&gt;" style="text;html=1;strokeColor=none;fillColor=none;align=center;verticalAlign=middle;whiteSpace=wrap;rounded=0;" parent="1" vertex="1">
                    <mxGeometry x="50" y="60" width="50" height="20" as="geometry"/>
                </mxCell>
                <mxCell id="zBXeJww9K7jumWJN20Hu-4" value="&lt;font style=&quot;font-size: 6px;&quot;&gt;clk&lt;/font&gt;" style="text;html=1;strokeColor=none;fillColor=none;align=center;verticalAlign=middle;whiteSpace=wrap;rounded=0;" parent="1" vertex="1">
                    <mxGeometry x="50" y="90" width="50" height="20" as="geometry"/>
                </mxCell>
                <mxCell id="zBXeJww9K7jumWJN20Hu-6" value="&lt;font style=&quot;font-size: 6px;&quot;&gt;rst&lt;/font&gt;" style="text;html=1;strokeColor=none;fillColor=none;align=center;verticalAlign=middle;whiteSpace=wrap;rounded=0;" parent="1" vertex="1">
                    <mxGeometry x="50" y="120" width="50" height="20" as="geometry"/>
                </mxCell>
                <mxCell id="zBXeJww9K7jumWJN20Hu-11" value="" style="endArrow=classic;html=1;rounded=0;" parent="1" edge="1">
                    <mxGeometry width="50" height="50" relative="1" as="geometry">
                        <mxPoint x="60" y="49.519999999999996" as="sourcePoint"/>
                        <mxPoint x="100" y="49.519999999999996" as="targetPoint"/>
                        <Array as="points"/>
                    </mxGeometry>
                </mxCell>
                <mxCell id="zBXeJww9K7jumWJN20Hu-12" value="" style="endArrow=classic;html=1;rounded=0;" parent="1" edge="1">
                    <mxGeometry width="50" height="50" relative="1" as="geometry">
                        <mxPoint x="60" y="79.99999999999997" as="sourcePoint"/>
                        <mxPoint x="100" y="79.99999999999997" as="targetPoint"/>
                        <Array as="points"/>
                    </mxGeometry>
                </mxCell>
                <mxCell id="zBXeJww9K7jumWJN20Hu-13" value="" style="endArrow=classic;html=1;rounded=0;" parent="1" edge="1">
                    <mxGeometry width="50" height="50" relative="1" as="geometry">
                        <mxPoint x="60" y="109.51999999999998" as="sourcePoint"/>
                        <mxPoint x="100" y="109.51999999999998" as="targetPoint"/>
                        <Array as="points"/>
                    </mxGeometry>
                </mxCell>
                <mxCell id="zBXeJww9K7jumWJN20Hu-15" value="" style="endArrow=classic;html=1;rounded=0;" parent="1" edge="1">
                    <mxGeometry width="50" height="50" relative="1" as="geometry">
                        <mxPoint x="60" y="139.51999999999998" as="sourcePoint"/>
                        <mxPoint x="100" y="139.51999999999998" as="targetPoint"/>
                        <Array as="points"/>
                    </mxGeometry>
                </mxCell>
                <mxCell id="zBXeJww9K7jumWJN20Hu-16" value="&lt;font style=&quot;font-size: 6px;&quot;&gt;to_iram&lt;/font&gt;" style="text;html=1;strokeColor=none;fillColor=none;align=center;verticalAlign=middle;whiteSpace=wrap;rounded=0;" parent="1" vertex="1">
                    <mxGeometry x="190" y="30" width="50" height="20" as="geometry"/>
                </mxCell>
                <mxCell id="zBXeJww9K7jumWJN20Hu-17" value="&lt;font style=&quot;font-size: 6px;&quot;&gt;npc_out&lt;/font&gt;" style="text;html=1;strokeColor=none;fillColor=none;align=center;verticalAlign=middle;whiteSpace=wrap;rounded=0;" parent="1" vertex="1">
                    <mxGeometry x="190" y="60" width="50" height="20" as="geometry"/>
                </mxCell>
                <mxCell id="zBXeJww9K7jumWJN20Hu-18" value="&lt;font style=&quot;font-size: 6px;&quot;&gt;instr_reg_out&lt;/font&gt;" style="text;html=1;strokeColor=none;fillColor=none;align=center;verticalAlign=middle;whiteSpace=wrap;rounded=0;" parent="1" vertex="1">
                    <mxGeometry x="190" y="90" width="50" height="20" as="geometry"/>
                </mxCell>
                <mxCell id="zBXeJww9K7jumWJN20Hu-19" value="&lt;font style=&quot;font-size: 6px;&quot;&gt;instr_fetched&lt;/font&gt;" style="text;html=1;strokeColor=none;fillColor=none;align=center;verticalAlign=middle;whiteSpace=wrap;rounded=0;" parent="1" vertex="1">
                    <mxGeometry x="190" y="120" width="50" height="20" as="geometry"/>
                </mxCell>
                <mxCell id="zBXeJww9K7jumWJN20Hu-20" value="" style="endArrow=classic;html=1;rounded=0;entryX=1;entryY=1;entryDx=0;entryDy=0;" parent="1" target="zBXeJww9K7jumWJN20Hu-16" edge="1">
                    <mxGeometry width="50" height="50" relative="1" as="geometry">
                        <mxPoint x="190" y="49.51999999999998" as="sourcePoint"/>
                        <mxPoint x="230" y="49.51999999999998" as="targetPoint"/>
                        <Array as="points"/>
                    </mxGeometry>
                </mxCell>
                <mxCell id="zBXeJww9K7jumWJN20Hu-21" value="" style="endArrow=classic;html=1;rounded=0;entryX=1.048;entryY=0.999;entryDx=0;entryDy=0;entryPerimeter=0;" parent="1" target="zBXeJww9K7jumWJN20Hu-17" edge="1">
                    <mxGeometry width="50" height="50" relative="1" as="geometry">
                        <mxPoint x="190" y="80" as="sourcePoint"/>
                        <mxPoint x="230" y="80" as="targetPoint"/>
                        <Array as="points"/>
                    </mxGeometry>
                </mxCell>
                <mxCell id="zBXeJww9K7jumWJN20Hu-22" value="" style="endArrow=classic;html=1;rounded=0;entryX=1;entryY=1;entryDx=0;entryDy=0;" parent="1" target="zBXeJww9K7jumWJN20Hu-18" edge="1">
                    <mxGeometry width="50" height="50" relative="1" as="geometry">
                        <mxPoint x="190" y="109.51999999999998" as="sourcePoint"/>
                        <mxPoint x="230" y="109.51999999999998" as="targetPoint"/>
                        <Array as="points"/>
                    </mxGeometry>
                </mxCell>
                <mxCell id="zBXeJww9K7jumWJN20Hu-23" value="" style="endArrow=classic;html=1;rounded=0;entryX=1;entryY=1;entryDx=0;entryDy=0;" parent="1" target="zBXeJww9K7jumWJN20Hu-19" edge="1">
                    <mxGeometry width="50" height="50" relative="1" as="geometry">
                        <mxPoint x="190" y="139.51999999999998" as="sourcePoint"/>
                        <mxPoint x="230" y="139.51999999999998" as="targetPoint"/>
                        <Array as="points"/>
                    </mxGeometry>
                </mxCell>
                <mxCell id="zBXeJww9K7jumWJN20Hu-25" value="&lt;font style=&quot;font-size: 10px;&quot;&gt;FETCH UNIT&lt;/font&gt;" style="text;html=1;strokeColor=none;fillColor=none;align=center;verticalAlign=middle;whiteSpace=wrap;rounded=0;fontSize=6;" parent="1" vertex="1">
                    <mxGeometry x="115" y="75" width="60" height="30" as="geometry"/>
                </mxCell>
                <mxCell id="1ph1mHZFrmbMyN922qY5-2" value="" style="endArrow=none;html=1;rounded=0;fontSize=10;" parent="1" edge="1">
                    <mxGeometry width="50" height="50" relative="1" as="geometry">
                        <mxPoint x="80" y="350" as="sourcePoint"/>
                        <mxPoint x="200" y="350" as="targetPoint"/>
                    </mxGeometry>
                </mxCell>
                <mxCell id="1ph1mHZFrmbMyN922qY5-11" value="" style="endArrow=none;html=1;rounded=0;fontSize=10;" parent="1" edge="1">
                    <mxGeometry width="50" height="50" relative="1" as="geometry">
                        <mxPoint x="200" y="370" as="sourcePoint"/>
                        <mxPoint x="200" y="330" as="targetPoint"/>
                        <Array as="points">
                            <mxPoint x="200" y="350"/>
                        </Array>
                    </mxGeometry>
                </mxCell>
                <mxCell id="1ph1mHZFrmbMyN922qY5-12" value="" style="endArrow=none;html=1;rounded=0;fontSize=10;" parent="1" edge="1">
                    <mxGeometry width="50" height="50" relative="1" as="geometry">
                        <mxPoint x="200" y="370" as="sourcePoint"/>
                        <mxPoint x="220" y="380" as="targetPoint"/>
                    </mxGeometry>
                </mxCell>
                <mxCell id="1ph1mHZFrmbMyN922qY5-13" value="" style="endArrow=none;html=1;rounded=0;fontSize=10;" parent="1" edge="1">
                    <mxGeometry width="50" height="50" relative="1" as="geometry">
                        <mxPoint x="200" y="390" as="sourcePoint"/>
                        <mxPoint x="220" y="380" as="targetPoint"/>
                    </mxGeometry>
                </mxCell>
                <mxCell id="1ph1mHZFrmbMyN922qY5-14" value="" style="endArrow=none;html=1;rounded=0;fontSize=10;" parent="1" edge="1">
                    <mxGeometry width="50" height="50" relative="1" as="geometry">
                        <mxPoint x="200" y="430" as="sourcePoint"/>
                        <mxPoint x="200" y="390" as="targetPoint"/>
                        <Array as="points">
                            <mxPoint x="200" y="410"/>
                        </Array>
                    </mxGeometry>
                </mxCell>
                <mxCell id="1ph1mHZFrmbMyN922qY5-15" value="" style="endArrow=none;html=1;rounded=0;fontSize=10;" parent="1" edge="1">
                    <mxGeometry width="50" height="50" relative="1" as="geometry">
                        <mxPoint x="200" y="430" as="sourcePoint"/>
                        <mxPoint x="250" y="400" as="targetPoint"/>
                        <Array as="points"/>
                    </mxGeometry>
                </mxCell>
                <mxCell id="1ph1mHZFrmbMyN922qY5-16" value="" style="endArrow=none;html=1;rounded=0;fontSize=10;" parent="1" edge="1">
                    <mxGeometry width="50" height="50" relative="1" as="geometry">
                        <mxPoint x="200" y="330" as="sourcePoint"/>
                        <mxPoint x="250" y="360" as="targetPoint"/>
                        <Array as="points"/>
                    </mxGeometry>
                </mxCell>
                <mxCell id="1ph1mHZFrmbMyN922qY5-17" value="" style="endArrow=none;html=1;rounded=0;fontSize=10;" parent="1" edge="1">
                    <mxGeometry width="50" height="50" relative="1" as="geometry">
                        <mxPoint x="250" y="400" as="sourcePoint"/>
                        <mxPoint x="250" y="360" as="targetPoint"/>
                    </mxGeometry>
                </mxCell>
                <mxCell id="UIIWBfEgQzDDJFF5GgfD-1" value="" style="endArrow=none;html=1;rounded=0;fontSize=10;" parent="1" edge="1">
                    <mxGeometry width="50" height="50" relative="1" as="geometry">
                        <mxPoint x="170" y="410" as="sourcePoint"/>
                        <mxPoint x="200" y="410" as="targetPoint"/>
                        <Array as="points">
                            <mxPoint x="200" y="410"/>
                        </Array>
                    </mxGeometry>
                </mxCell>
                <mxCell id="UIIWBfEgQzDDJFF5GgfD-3" value="&lt;font style=&quot;font-size: 14px;&quot;&gt;+&lt;/font&gt;" style="text;html=1;strokeColor=none;fillColor=none;align=center;verticalAlign=middle;whiteSpace=wrap;rounded=0;fontSize=10;" parent="1" vertex="1">
                    <mxGeometry x="220" y="360" width="30" height="40" as="geometry"/>
                </mxCell>
                <mxCell id="UIIWBfEgQzDDJFF5GgfD-4" value="&lt;font style=&quot;font-size: 12px;&quot;&gt;4&lt;/font&gt;" style="text;html=1;strokeColor=none;fillColor=none;align=center;verticalAlign=middle;whiteSpace=wrap;rounded=0;fontSize=14;" parent="1" vertex="1">
                    <mxGeometry x="160" y="390" width="40" height="20" as="geometry"/>
                </mxCell>
                <mxCell id="UIIWBfEgQzDDJFF5GgfD-5" value="" style="endArrow=none;html=1;rounded=0;fontSize=12;" parent="1" edge="1">
                    <mxGeometry width="50" height="50" relative="1" as="geometry">
                        <mxPoint x="140" y="430" as="sourcePoint"/>
                        <mxPoint x="140" y="350" as="targetPoint"/>
                    </mxGeometry>
                </mxCell>
                <mxCell id="UIIWBfEgQzDDJFF5GgfD-7" value="&lt;font style=&quot;font-size: 6px;&quot;&gt;&quot;00&quot; &amp;amp; 31 downto 0&lt;/font&gt;" style="rounded=0;whiteSpace=wrap;html=1;fontSize=12;" parent="1" vertex="1">
                    <mxGeometry x="120" y="430" width="40" height="50" as="geometry"/>
                </mxCell>
                <mxCell id="UIIWBfEgQzDDJFF5GgfD-8" value="IRAM" style="rounded=0;whiteSpace=wrap;html=1;fontSize=6;" parent="1" vertex="1">
                    <mxGeometry x="130" y="570" width="80" height="40" as="geometry"/>
                </mxCell>
                <mxCell id="UIIWBfEgQzDDJFF5GgfD-9" value="" style="endArrow=none;html=1;rounded=0;fontSize=6;entryX=0.5;entryY=1;entryDx=0;entryDy=0;" parent="1" target="UIIWBfEgQzDDJFF5GgfD-7" edge="1">
                    <mxGeometry width="50" height="50" relative="1" as="geometry">
                        <mxPoint x="140" y="570" as="sourcePoint"/>
                        <mxPoint x="190" y="490" as="targetPoint"/>
                    </mxGeometry>
                </mxCell>
                <mxCell id="UIIWBfEgQzDDJFF5GgfD-10" value="" style="endArrow=none;html=1;rounded=0;fontSize=10;" parent="1" edge="1">
                    <mxGeometry width="50" height="50" relative="1" as="geometry">
                        <mxPoint x="250" y="379.90000000000015" as="sourcePoint"/>
                        <mxPoint x="280" y="379.90000000000015" as="targetPoint"/>
                        <Array as="points">
                            <mxPoint x="260" y="379.90000000000003"/>
                            <mxPoint x="280" y="379.90000000000003"/>
                        </Array>
                    </mxGeometry>
                </mxCell>
                <mxCell id="UIIWBfEgQzDDJFF5GgfD-11" value="" style="endArrow=none;html=1;rounded=0;fontSize=6;exitX=0.875;exitY=0;exitDx=0;exitDy=0;exitPerimeter=0;" parent="1" source="UIIWBfEgQzDDJFF5GgfD-8" edge="1">
                    <mxGeometry width="50" height="50" relative="1" as="geometry">
                        <mxPoint x="200" y="520" as="sourcePoint"/>
                        <mxPoint x="200" y="460" as="targetPoint"/>
                    </mxGeometry>
                </mxCell>
                <mxCell id="UIIWBfEgQzDDJFF5GgfD-13" value="" style="endArrow=none;html=1;rounded=0;fontSize=6;" parent="1" edge="1">
                    <mxGeometry width="50" height="50" relative="1" as="geometry">
                        <mxPoint x="200" y="460" as="sourcePoint"/>
                        <mxPoint x="280" y="460" as="targetPoint"/>
                    </mxGeometry>
                </mxCell>
                <mxCell id="UIIWBfEgQzDDJFF5GgfD-14" value="" style="rounded=0;whiteSpace=wrap;html=1;fontSize=6;" parent="1" vertex="1">
                    <mxGeometry x="280" y="370" width="30" height="70" as="geometry"/>
                </mxCell>
                <mxCell id="UIIWBfEgQzDDJFF5GgfD-17" value="" style="triangle;whiteSpace=wrap;html=1;fontSize=6;" parent="1" vertex="1">
                    <mxGeometry x="280" y="415" width="10" height="15" as="geometry"/>
                </mxCell>
                <mxCell id="UIIWBfEgQzDDJFF5GgfD-18" value="" style="rounded=0;whiteSpace=wrap;html=1;fontSize=6;" parent="1" vertex="1">
                    <mxGeometry x="280" y="450" width="30" height="70" as="geometry"/>
                </mxCell>
                <mxCell id="UIIWBfEgQzDDJFF5GgfD-19" value="" style="triangle;whiteSpace=wrap;html=1;fontSize=6;" parent="1" vertex="1">
                    <mxGeometry x="280" y="495" width="10" height="15" as="geometry"/>
                </mxCell>
                <mxCell id="UIIWBfEgQzDDJFF5GgfD-21" value="" style="endArrow=none;html=1;rounded=0;fontSize=6;" parent="1" edge="1">
                    <mxGeometry width="50" height="50" relative="1" as="geometry">
                        <mxPoint x="270" y="422.45" as="sourcePoint"/>
                        <mxPoint x="280" y="422.45" as="targetPoint"/>
                    </mxGeometry>
                </mxCell>
                <mxCell id="UIIWBfEgQzDDJFF5GgfD-22" value="" style="endArrow=none;html=1;rounded=0;fontSize=6;" parent="1" edge="1">
                    <mxGeometry width="50" height="50" relative="1" as="geometry">
                        <mxPoint x="270" y="502.45000000000005" as="sourcePoint"/>
                        <mxPoint x="280" y="502.45000000000005" as="targetPoint"/>
                    </mxGeometry>
                </mxCell>
                <mxCell id="UIIWBfEgQzDDJFF5GgfD-24" value="" style="endArrow=none;html=1;rounded=0;fontSize=6;startArrow=none;" parent="1" edge="1">
                    <mxGeometry width="50" height="50" relative="1" as="geometry">
                        <mxPoint x="220" y="530" as="sourcePoint"/>
                        <mxPoint x="350" y="530" as="targetPoint"/>
                    </mxGeometry>
                </mxCell>
                <mxCell id="UIIWBfEgQzDDJFF5GgfD-25" value="" style="endArrow=none;html=1;rounded=0;fontSize=6;" parent="1" edge="1">
                    <mxGeometry width="50" height="50" relative="1" as="geometry">
                        <mxPoint x="310" y="460" as="sourcePoint"/>
                        <mxPoint x="350" y="460" as="targetPoint"/>
                    </mxGeometry>
                </mxCell>
                <mxCell id="UIIWBfEgQzDDJFF5GgfD-26" value="" style="endArrow=none;html=1;rounded=0;fontSize=6;" parent="1" edge="1">
                    <mxGeometry width="50" height="50" relative="1" as="geometry">
                        <mxPoint x="310" y="379.96" as="sourcePoint"/>
                        <mxPoint x="350" y="379.96" as="targetPoint"/>
                    </mxGeometry>
                </mxCell>
                <mxCell id="LhxNve77Yi_A8shTem4E-1" value="program_counter" style="text;html=1;strokeColor=none;fillColor=none;align=center;verticalAlign=middle;whiteSpace=wrap;rounded=0;fontSize=6;" parent="1" vertex="1">
                    <mxGeometry x="70" y="330" width="60" height="20" as="geometry"/>
                </mxCell>
                <mxCell id="LhxNve77Yi_A8shTem4E-2" value="tomem" style="text;html=1;strokeColor=none;fillColor=none;align=center;verticalAlign=middle;whiteSpace=wrap;rounded=0;fontSize=6;" parent="1" vertex="1">
                    <mxGeometry x="140" y="480" width="30" height="30" as="geometry"/>
                </mxCell>
                <mxCell id="LhxNve77Yi_A8shTem4E-3" value="to_IRAM" style="text;html=1;strokeColor=none;fillColor=none;align=center;verticalAlign=middle;whiteSpace=wrap;rounded=0;fontSize=6;" parent="1" vertex="1">
                    <mxGeometry x="100" y="555" width="50" height="20" as="geometry"/>
                </mxCell>
                <mxCell id="LhxNve77Yi_A8shTem4E-5" value="" style="endArrow=none;html=1;rounded=0;fontSize=6;" parent="1" edge="1">
                    <mxGeometry width="50" height="50" relative="1" as="geometry">
                        <mxPoint x="200" y="530" as="sourcePoint"/>
                        <mxPoint x="220" y="530" as="targetPoint"/>
                    </mxGeometry>
                </mxCell>
                <mxCell id="LhxNve77Yi_A8shTem4E-6" value="instr_fetched" style="text;html=1;strokeColor=none;fillColor=none;align=center;verticalAlign=middle;whiteSpace=wrap;rounded=0;fontSize=6;" parent="1" vertex="1">
                    <mxGeometry x="300" y="515" width="60" height="20" as="geometry"/>
                </mxCell>
                <mxCell id="LhxNve77Yi_A8shTem4E-7" value="instr_reg_out" style="text;html=1;strokeColor=none;fillColor=none;align=center;verticalAlign=middle;whiteSpace=wrap;rounded=0;fontSize=6;" parent="1" vertex="1">
                    <mxGeometry x="300" y="445" width="60" height="20" as="geometry"/>
                </mxCell>
                <mxCell id="LhxNve77Yi_A8shTem4E-8" value="npc_out" style="text;html=1;strokeColor=none;fillColor=none;align=center;verticalAlign=middle;whiteSpace=wrap;rounded=0;fontSize=6;" parent="1" vertex="1">
                    <mxGeometry x="300" y="360" width="60" height="30" as="geometry"/>
                </mxCell>
                <mxCell id="LhxNve77Yi_A8shTem4E-9" value="to_IR" style="text;html=1;strokeColor=none;fillColor=none;align=center;verticalAlign=middle;whiteSpace=wrap;rounded=0;fontSize=6;" parent="1" vertex="1">
                    <mxGeometry x="160" y="550" width="60" height="30" as="geometry"/>
                </mxCell>
                <mxCell id="utCcnjPkZvuDGFTa14uh-1" value="" style="rounded=0;whiteSpace=wrap;html=1;" parent="1" vertex="1">
                    <mxGeometry x="380" y="-40" width="90" height="210" as="geometry"/>
                </mxCell>
                <mxCell id="utCcnjPkZvuDGFTa14uh-2" value="&lt;font style=&quot;font-size: 6px;&quot;&gt;write_enable&lt;/font&gt;" style="text;html=1;strokeColor=none;fillColor=none;align=center;verticalAlign=middle;whiteSpace=wrap;rounded=0;" parent="1" vertex="1">
                    <mxGeometry x="330" y="20" width="50" height="20" as="geometry"/>
                </mxCell>
                <mxCell id="utCcnjPkZvuDGFTa14uh-3" value="&lt;font style=&quot;font-size: 6px;&quot;&gt;in_IR&lt;/font&gt;" style="text;html=1;strokeColor=none;fillColor=none;align=center;verticalAlign=middle;whiteSpace=wrap;rounded=0;" parent="1" vertex="1">
                    <mxGeometry x="330" y="44.72" width="50" height="20" as="geometry"/>
                </mxCell>
                <mxCell id="utCcnjPkZvuDGFTa14uh-4" value="&lt;font style=&quot;font-size: 6px;&quot;&gt;clk&lt;/font&gt;" style="text;html=1;strokeColor=none;fillColor=none;align=center;verticalAlign=middle;whiteSpace=wrap;rounded=0;" parent="1" vertex="1">
                    <mxGeometry x="330" y="-35" width="50" height="20" as="geometry"/>
                </mxCell>
                <mxCell id="utCcnjPkZvuDGFTa14uh-5" value="&lt;font style=&quot;font-size: 6px;&quot;&gt;rst&lt;/font&gt;" style="text;html=1;strokeColor=none;fillColor=none;align=center;verticalAlign=middle;whiteSpace=wrap;rounded=0;" parent="1" vertex="1">
                    <mxGeometry x="330" y="-5" width="50" height="20" as="geometry"/>
                </mxCell>
                <mxCell id="utCcnjPkZvuDGFTa14uh-6" value="" style="endArrow=classic;html=1;rounded=0;" parent="1" edge="1">
                    <mxGeometry width="50" height="50" relative="1" as="geometry">
                        <mxPoint x="340" y="39.51999999999998" as="sourcePoint"/>
                        <mxPoint x="380" y="39.51999999999998" as="targetPoint"/>
                        <Array as="points"/>
                    </mxGeometry>
                </mxCell>
                <mxCell id="utCcnjPkZvuDGFTa14uh-7" value="" style="endArrow=classic;html=1;rounded=0;" parent="1" edge="1">
                    <mxGeometry width="50" height="50" relative="1" as="geometry">
                        <mxPoint x="340" y="64.72" as="sourcePoint"/>
                        <mxPoint x="380" y="64.72" as="targetPoint"/>
                        <Array as="points"/>
                    </mxGeometry>
                </mxCell>
                <mxCell id="utCcnjPkZvuDGFTa14uh-8" value="" style="endArrow=classic;html=1;rounded=0;" parent="1" edge="1">
                    <mxGeometry width="50" height="50" relative="1" as="geometry">
                        <mxPoint x="340" y="-15.480000000000018" as="sourcePoint"/>
                        <mxPoint x="380" y="-15.480000000000018" as="targetPoint"/>
                        <Array as="points"/>
                    </mxGeometry>
                </mxCell>
                <mxCell id="utCcnjPkZvuDGFTa14uh-9" value="" style="endArrow=classic;html=1;rounded=0;" parent="1" edge="1">
                    <mxGeometry width="50" height="50" relative="1" as="geometry">
                        <mxPoint x="340" y="14.519999999999982" as="sourcePoint"/>
                        <mxPoint x="380" y="14.519999999999982" as="targetPoint"/>
                        <Array as="points"/>
                    </mxGeometry>
                </mxCell>
                <mxCell id="utCcnjPkZvuDGFTa14uh-10" value="&lt;font style=&quot;font-size: 6px;&quot;&gt;to_iram&lt;/font&gt;" style="text;html=1;strokeColor=none;fillColor=none;align=center;verticalAlign=middle;whiteSpace=wrap;rounded=0;" parent="1" vertex="1">
                    <mxGeometry x="600" y="25" width="50" height="20" as="geometry"/>
                </mxCell>
                <mxCell id="utCcnjPkZvuDGFTa14uh-11" value="&lt;font style=&quot;font-size: 6px;&quot;&gt;npc_out&lt;/font&gt;" style="text;html=1;strokeColor=none;fillColor=none;align=center;verticalAlign=middle;whiteSpace=wrap;rounded=0;" parent="1" vertex="1">
                    <mxGeometry x="600" y="55" width="50" height="20" as="geometry"/>
                </mxCell>
                <mxCell id="utCcnjPkZvuDGFTa14uh-12" value="&lt;font style=&quot;font-size: 6px;&quot;&gt;instr_reg_out&lt;/font&gt;" style="text;html=1;strokeColor=none;fillColor=none;align=center;verticalAlign=middle;whiteSpace=wrap;rounded=0;" parent="1" vertex="1">
                    <mxGeometry x="600" y="85" width="50" height="20" as="geometry"/>
                </mxCell>
                <mxCell id="utCcnjPkZvuDGFTa14uh-13" value="&lt;font style=&quot;font-size: 6px;&quot;&gt;instr_fetched&lt;/font&gt;" style="text;html=1;strokeColor=none;fillColor=none;align=center;verticalAlign=middle;whiteSpace=wrap;rounded=0;" parent="1" vertex="1">
                    <mxGeometry x="600" y="115" width="50" height="20" as="geometry"/>
                </mxCell>
                <mxCell id="utCcnjPkZvuDGFTa14uh-14" value="" style="endArrow=classic;html=1;rounded=0;entryX=1;entryY=1;entryDx=0;entryDy=0;" parent="1" target="utCcnjPkZvuDGFTa14uh-10" edge="1">
                    <mxGeometry width="50" height="50" relative="1" as="geometry">
                        <mxPoint x="600" y="44.51999999999998" as="sourcePoint"/>
                        <mxPoint x="640" y="44.51999999999998" as="targetPoint"/>
                        <Array as="points"/>
                    </mxGeometry>
                </mxCell>
                <mxCell id="utCcnjPkZvuDGFTa14uh-15" value="" style="endArrow=classic;html=1;rounded=0;entryX=1.048;entryY=0.999;entryDx=0;entryDy=0;entryPerimeter=0;" parent="1" target="utCcnjPkZvuDGFTa14uh-11" edge="1">
                    <mxGeometry width="50" height="50" relative="1" as="geometry">
                        <mxPoint x="600" y="75" as="sourcePoint"/>
                        <mxPoint x="640" y="75" as="targetPoint"/>
                        <Array as="points"/>
                    </mxGeometry>
                </mxCell>
                <mxCell id="utCcnjPkZvuDGFTa14uh-16" value="" style="endArrow=classic;html=1;rounded=0;entryX=1;entryY=1;entryDx=0;entryDy=0;" parent="1" target="utCcnjPkZvuDGFTa14uh-12" edge="1">
                    <mxGeometry width="50" height="50" relative="1" as="geometry">
                        <mxPoint x="600" y="104.51999999999998" as="sourcePoint"/>
                        <mxPoint x="640" y="104.51999999999998" as="targetPoint"/>
                        <Array as="points"/>
                    </mxGeometry>
                </mxCell>
                <mxCell id="utCcnjPkZvuDGFTa14uh-17" value="" style="endArrow=classic;html=1;rounded=0;entryX=1;entryY=1;entryDx=0;entryDy=0;" parent="1" target="utCcnjPkZvuDGFTa14uh-13" edge="1">
                    <mxGeometry width="50" height="50" relative="1" as="geometry">
                        <mxPoint x="600" y="134.51999999999998" as="sourcePoint"/>
                        <mxPoint x="640" y="134.51999999999998" as="targetPoint"/>
                        <Array as="points"/>
                    </mxGeometry>
                </mxCell>
                <mxCell id="utCcnjPkZvuDGFTa14uh-18" value="&lt;font style=&quot;font-size: 10px;&quot;&gt;DECODE UNIT&lt;/font&gt;" style="text;html=1;strokeColor=none;fillColor=none;align=center;verticalAlign=middle;whiteSpace=wrap;rounded=0;fontSize=6;" parent="1" vertex="1">
                    <mxGeometry x="395" y="44.58" width="60" height="30" as="geometry"/>
                </mxCell>
                <mxCell id="utCcnjPkZvuDGFTa14uh-19" value="&lt;font style=&quot;font-size: 6px;&quot;&gt;NPC_in&lt;/font&gt;" style="text;html=1;strokeColor=none;fillColor=none;align=center;verticalAlign=middle;whiteSpace=wrap;rounded=0;" parent="1" vertex="1">
                    <mxGeometry x="330" y="74.58" width="50" height="20" as="geometry"/>
                </mxCell>
                <mxCell id="utCcnjPkZvuDGFTa14uh-20" value="" style="endArrow=classic;html=1;rounded=0;" parent="1" edge="1">
                    <mxGeometry width="50" height="50" relative="1" as="geometry">
                        <mxPoint x="340" y="94.58" as="sourcePoint"/>
                        <mxPoint x="380" y="94.58" as="targetPoint"/>
                        <Array as="points"/>
                    </mxGeometry>
                </mxCell>
                <mxCell id="utCcnjPkZvuDGFTa14uh-21" value="&lt;font style=&quot;font-size: 6px;&quot;&gt;RD_IN&lt;/font&gt;" style="text;html=1;strokeColor=none;fillColor=none;align=center;verticalAlign=middle;whiteSpace=wrap;rounded=0;" parent="1" vertex="1">
                    <mxGeometry x="330" y="99.72" width="50" height="20" as="geometry"/>
                </mxCell>
                <mxCell id="utCcnjPkZvuDGFTa14uh-22" value="" style="endArrow=classic;html=1;rounded=0;" parent="1" edge="1">
                    <mxGeometry width="50" height="50" relative="1" as="geometry">
                        <mxPoint x="340" y="119.72" as="sourcePoint"/>
                        <mxPoint x="380" y="119.72" as="targetPoint"/>
                        <Array as="points"/>
                    </mxGeometry>
                </mxCell>
                <mxCell id="utCcnjPkZvuDGFTa14uh-23" value="&lt;font style=&quot;font-size: 6px;&quot;&gt;instr_fetched&lt;br&gt;&lt;/font&gt;" style="text;html=1;strokeColor=none;fillColor=none;align=center;verticalAlign=middle;whiteSpace=wrap;rounded=0;" parent="1" vertex="1">
                    <mxGeometry x="330" y="130" width="50" height="20" as="geometry"/>
                </mxCell>
                <mxCell id="utCcnjPkZvuDGFTa14uh-24" value="" style="endArrow=classic;html=1;rounded=0;" parent="1" edge="1">
                    <mxGeometry width="50" height="50" relative="1" as="geometry">
                        <mxPoint x="340" y="150" as="sourcePoint"/>
                        <mxPoint x="380" y="150" as="targetPoint"/>
                        <Array as="points"/>
                    </mxGeometry>
                </mxCell>
                <mxCell id="utCcnjPkZvuDGFTa14uh-25" value="&lt;font style=&quot;font-size: 6px;&quot;&gt;write_enable&lt;/font&gt;" style="text;html=1;strokeColor=none;fillColor=none;align=center;verticalAlign=middle;whiteSpace=wrap;rounded=0;" parent="1" vertex="1">
                    <mxGeometry x="460" y="-15" width="50" height="20" as="geometry"/>
                </mxCell>
                <mxCell id="utCcnjPkZvuDGFTa14uh-26" value="&lt;font style=&quot;font-size: 6px;&quot;&gt;in_IR&lt;/font&gt;" style="text;html=1;strokeColor=none;fillColor=none;align=center;verticalAlign=middle;whiteSpace=wrap;rounded=0;" parent="1" vertex="1">
                    <mxGeometry x="460" y="29.439999999999998" width="50" height="20" as="geometry"/>
                </mxCell>
                <mxCell id="utCcnjPkZvuDGFTa14uh-27" value="&lt;font style=&quot;font-size: 6px;&quot;&gt;NPC_OUT_BPU&lt;br&gt;&lt;/font&gt;" style="text;html=1;strokeColor=none;fillColor=none;align=center;verticalAlign=middle;whiteSpace=wrap;rounded=0;" parent="1" vertex="1">
                    <mxGeometry x="470" y="-50.28" width="50" height="20" as="geometry"/>
                </mxCell>
                <mxCell id="utCcnjPkZvuDGFTa14uh-28" value="&lt;font style=&quot;font-size: 6px;&quot;&gt;rst&lt;/font&gt;" style="text;html=1;strokeColor=none;fillColor=none;align=center;verticalAlign=middle;whiteSpace=wrap;rounded=0;" parent="1" vertex="1">
                    <mxGeometry x="460" y="-35" width="50" height="20" as="geometry"/>
                </mxCell>
                <mxCell id="utCcnjPkZvuDGFTa14uh-29" value="" style="endArrow=classic;html=1;rounded=0;" parent="1" edge="1">
                    <mxGeometry width="50" height="50" relative="1" as="geometry">
                        <mxPoint x="470" y="4.519999999999982" as="sourcePoint"/>
                        <mxPoint x="510" y="4.519999999999982" as="targetPoint"/>
                        <Array as="points"/>
                    </mxGeometry>
                </mxCell>
                <mxCell id="utCcnjPkZvuDGFTa14uh-30" value="" style="endArrow=classic;html=1;rounded=0;" parent="1" edge="1">
                    <mxGeometry width="50" height="50" relative="1" as="geometry">
                        <mxPoint x="470" y="49.440000000000026" as="sourcePoint"/>
                        <mxPoint x="510" y="49.440000000000026" as="targetPoint"/>
                        <Array as="points"/>
                    </mxGeometry>
                </mxCell>
                <mxCell id="utCcnjPkZvuDGFTa14uh-31" value="" style="endArrow=classic;html=1;rounded=0;" parent="1" edge="1">
                    <mxGeometry width="50" height="50" relative="1" as="geometry">
                        <mxPoint x="470" y="-30" as="sourcePoint"/>
                        <mxPoint x="530" y="-30" as="targetPoint"/>
                        <Array as="points"/>
                    </mxGeometry>
                </mxCell>
                <mxCell id="utCcnjPkZvuDGFTa14uh-32" value="" style="endArrow=classic;html=1;rounded=0;" parent="1" edge="1">
                    <mxGeometry width="50" height="50" relative="1" as="geometry">
                        <mxPoint x="470" y="-15.48000000000002" as="sourcePoint"/>
                        <mxPoint x="510" y="-15.48000000000002" as="targetPoint"/>
                        <Array as="points"/>
                    </mxGeometry>
                </mxCell>
                <mxCell id="utCcnjPkZvuDGFTa14uh-33" value="&lt;font style=&quot;font-size: 6px;&quot;&gt;NPC_in&lt;/font&gt;" style="text;html=1;strokeColor=none;fillColor=none;align=center;verticalAlign=middle;whiteSpace=wrap;rounded=0;" parent="1" vertex="1">
                    <mxGeometry x="460" y="59.3" width="50" height="20" as="geometry"/>
                </mxCell>
                <mxCell id="utCcnjPkZvuDGFTa14uh-34" value="" style="endArrow=classic;html=1;rounded=0;" parent="1" edge="1">
                    <mxGeometry width="50" height="50" relative="1" as="geometry">
                        <mxPoint x="470" y="79.30000000000004" as="sourcePoint"/>
                        <mxPoint x="510" y="79.30000000000004" as="targetPoint"/>
                        <Array as="points"/>
                    </mxGeometry>
                </mxCell>
                <mxCell id="utCcnjPkZvuDGFTa14uh-35" value="&lt;font style=&quot;font-size: 6px;&quot;&gt;RD_IN&lt;/font&gt;" style="text;html=1;strokeColor=none;fillColor=none;align=center;verticalAlign=middle;whiteSpace=wrap;rounded=0;" parent="1" vertex="1">
                    <mxGeometry x="460" y="84.44" width="50" height="20" as="geometry"/>
                </mxCell>
                <mxCell id="utCcnjPkZvuDGFTa14uh-36" value="" style="endArrow=classic;html=1;rounded=0;" parent="1" edge="1">
                    <mxGeometry width="50" height="50" relative="1" as="geometry">
                        <mxPoint x="470" y="104.44000000000003" as="sourcePoint"/>
                        <mxPoint x="510" y="104.44000000000003" as="targetPoint"/>
                        <Array as="points"/>
                    </mxGeometry>
                </mxCell>
                <mxCell id="utCcnjPkZvuDGFTa14uh-37" value="&lt;font style=&quot;font-size: 6px;&quot;&gt;instr_fetched&lt;br&gt;&lt;/font&gt;" style="text;html=1;strokeColor=none;fillColor=none;align=center;verticalAlign=middle;whiteSpace=wrap;rounded=0;" parent="1" vertex="1">
                    <mxGeometry x="460" y="114.72" width="50" height="20" as="geometry"/>
                </mxCell>
                <mxCell id="utCcnjPkZvuDGFTa14uh-38" value="" style="endArrow=classic;html=1;rounded=0;" parent="1" edge="1">
                    <mxGeometry width="50" height="50" relative="1" as="geometry">
                        <mxPoint x="470" y="134.72" as="sourcePoint"/>
                        <mxPoint x="510" y="134.72" as="targetPoint"/>
                        <Array as="points"/>
                    </mxGeometry>
                </mxCell>
            </root>
        </mxGraphModel>
    </diagram>
    <diagram id="37srsYPYA-ppc65voMsz" name="Decode Unit">
        <mxGraphModel dx="279" dy="506" grid="1" gridSize="10" guides="1" tooltips="1" connect="1" arrows="1" fold="1" page="1" pageScale="1" pageWidth="827" pageHeight="1169" math="0" shadow="0">
            <root>
                <mxCell id="0"/>
                <mxCell id="1" parent="0"/>
            </root>
        </mxGraphModel>
    </diagram>
    <diagram id="NTb76ESvOxS7VjEAnlFL" name="memoryAndWriteBack">
        <mxGraphModel dx="279" dy="506" grid="1" gridSize="10" guides="1" tooltips="1" connect="1" arrows="1" fold="1" page="1" pageScale="1" pageWidth="827" pageHeight="1169" math="0" shadow="0">
            <root>
                <mxCell id="0"/>
                <mxCell id="1" parent="0"/>
                <mxCell id="B991r3YSBw1He4wbUZft-24" value="DRAM" style="rounded=0;whiteSpace=wrap;html=1;" parent="1" vertex="1">
                    <mxGeometry x="217.5" y="490" width="75" height="60" as="geometry"/>
                </mxCell>
                <mxCell id="Dk9IfZBP1PPq3wKfmlU3-1" value="" style="group" parent="1" vertex="1" connectable="0">
                    <mxGeometry x="46" y="33" width="200" height="190" as="geometry"/>
                </mxCell>
                <mxCell id="KFlzOu6OiXH6zN4VjkQO-1" value="" style="rounded=0;whiteSpace=wrap;html=1;" parent="Dk9IfZBP1PPq3wKfmlU3-1" vertex="1">
                    <mxGeometry x="54" y="50" width="90" height="140" as="geometry"/>
                </mxCell>
                <mxCell id="KFlzOu6OiXH6zN4VjkQO-2" value="&lt;span style=&quot;font-size: 6px;&quot;&gt;ALU_in&lt;/span&gt;" style="text;html=1;strokeColor=none;fillColor=none;align=center;verticalAlign=middle;whiteSpace=wrap;rounded=0;" parent="Dk9IfZBP1PPq3wKfmlU3-1" vertex="1">
                    <mxGeometry x="4" y="60" width="50" height="20" as="geometry"/>
                </mxCell>
                <mxCell id="KFlzOu6OiXH6zN4VjkQO-3" value="&lt;font style=&quot;font-size: 6px;&quot;&gt;RD_reg_in&lt;/font&gt;" style="text;html=1;strokeColor=none;fillColor=none;align=center;verticalAlign=middle;whiteSpace=wrap;rounded=0;" parent="Dk9IfZBP1PPq3wKfmlU3-1" vertex="1">
                    <mxGeometry x="4" y="90" width="50" height="20" as="geometry"/>
                </mxCell>
                <mxCell id="KFlzOu6OiXH6zN4VjkQO-4" value="&lt;span style=&quot;font-size: 6px;&quot;&gt;to_mem_stage_reg&lt;/span&gt;" style="text;html=1;strokeColor=none;fillColor=none;align=center;verticalAlign=middle;whiteSpace=wrap;rounded=0;" parent="Dk9IfZBP1PPq3wKfmlU3-1" vertex="1">
                    <mxGeometry y="125" width="50" height="20" as="geometry"/>
                </mxCell>
                <mxCell id="KFlzOu6OiXH6zN4VjkQO-10" value="&lt;font style=&quot;font-size: 6px;&quot;&gt;RD_reg_out&lt;/font&gt;" style="text;html=1;strokeColor=none;fillColor=none;align=center;verticalAlign=middle;whiteSpace=wrap;rounded=0;" parent="Dk9IfZBP1PPq3wKfmlU3-1" vertex="1">
                    <mxGeometry x="139" y="60" width="50" height="20" as="geometry"/>
                </mxCell>
                <mxCell id="KFlzOu6OiXH6zN4VjkQO-11" value="&lt;font style=&quot;font-size: 6px;&quot;&gt;memory_stage_out&lt;/font&gt;" style="text;html=1;strokeColor=none;fillColor=none;align=center;verticalAlign=middle;whiteSpace=wrap;rounded=0;" parent="Dk9IfZBP1PPq3wKfmlU3-1" vertex="1">
                    <mxGeometry x="150" y="90" width="50" height="20" as="geometry"/>
                </mxCell>
                <mxCell id="KFlzOu6OiXH6zN4VjkQO-12" value="&lt;span style=&quot;font-size: 6px;&quot;&gt;ALU_out&lt;/span&gt;" style="text;html=1;strokeColor=none;fillColor=none;align=center;verticalAlign=middle;whiteSpace=wrap;rounded=0;" parent="Dk9IfZBP1PPq3wKfmlU3-1" vertex="1">
                    <mxGeometry x="144" y="120" width="50" height="20" as="geometry"/>
                </mxCell>
                <mxCell id="KFlzOu6OiXH6zN4VjkQO-13" value="&lt;font style=&quot;font-size: 6px;&quot;&gt;instr_fetched&lt;/font&gt;" style="text;html=1;strokeColor=none;fillColor=none;align=center;verticalAlign=middle;whiteSpace=wrap;rounded=0;" parent="Dk9IfZBP1PPq3wKfmlU3-1" vertex="1">
                    <mxGeometry x="144" y="150" width="50" height="20" as="geometry"/>
                </mxCell>
                <mxCell id="KFlzOu6OiXH6zN4VjkQO-18" value="&lt;span style=&quot;font-size: 10px;&quot;&gt;MEMORY UNIT&lt;/span&gt;" style="text;html=1;strokeColor=none;fillColor=none;align=center;verticalAlign=middle;whiteSpace=wrap;rounded=0;fontSize=6;" parent="Dk9IfZBP1PPq3wKfmlU3-1" vertex="1">
                    <mxGeometry x="69" y="105" width="60" height="30" as="geometry"/>
                </mxCell>
                <mxCell id="KFlzOu6OiXH6zN4VjkQO-19" value="" style="endArrow=classic;html=1;rounded=0;" parent="Dk9IfZBP1PPq3wKfmlU3-1" edge="1">
                    <mxGeometry width="50" height="50" relative="1" as="geometry">
                        <mxPoint x="74" y="20" as="sourcePoint"/>
                        <mxPoint x="74" y="50" as="targetPoint"/>
                        <Array as="points">
                            <mxPoint x="74" y="40"/>
                        </Array>
                    </mxGeometry>
                </mxCell>
                <mxCell id="KFlzOu6OiXH6zN4VjkQO-22" value="" style="endArrow=classic;html=1;rounded=0;" parent="Dk9IfZBP1PPq3wKfmlU3-1" edge="1">
                    <mxGeometry width="50" height="50" relative="1" as="geometry">
                        <mxPoint x="124" y="20" as="sourcePoint"/>
                        <mxPoint x="124" y="50" as="targetPoint"/>
                        <Array as="points">
                            <mxPoint x="124" y="40"/>
                        </Array>
                    </mxGeometry>
                </mxCell>
                <mxCell id="KFlzOu6OiXH6zN4VjkQO-23" value="&lt;span style=&quot;font-size: 6px;&quot;&gt;clk&lt;/span&gt;" style="text;html=1;strokeColor=none;fillColor=none;align=center;verticalAlign=middle;whiteSpace=wrap;rounded=0;" parent="Dk9IfZBP1PPq3wKfmlU3-1" vertex="1">
                    <mxGeometry x="50" width="50" height="20" as="geometry"/>
                </mxCell>
                <mxCell id="KFlzOu6OiXH6zN4VjkQO-24" value="&lt;span style=&quot;font-size: 6px;&quot;&gt;reset&lt;/span&gt;" style="text;html=1;strokeColor=none;fillColor=none;align=center;verticalAlign=middle;whiteSpace=wrap;rounded=0;" parent="Dk9IfZBP1PPq3wKfmlU3-1" vertex="1">
                    <mxGeometry x="100" width="50" height="20" as="geometry"/>
                </mxCell>
                <mxCell id="KFlzOu6OiXH6zN4VjkQO-53" value="" style="endArrow=classic;html=1;rounded=0;" parent="Dk9IfZBP1PPq3wKfmlU3-1" edge="1">
                    <mxGeometry width="50" height="50" relative="1" as="geometry">
                        <mxPoint x="144" y="79.77" as="sourcePoint"/>
                        <mxPoint x="192" y="79.77" as="targetPoint"/>
                        <Array as="points"/>
                    </mxGeometry>
                </mxCell>
                <mxCell id="KFlzOu6OiXH6zN4VjkQO-56" value="" style="endArrow=classic;html=1;rounded=0;" parent="Dk9IfZBP1PPq3wKfmlU3-1" edge="1">
                    <mxGeometry width="50" height="50" relative="1" as="geometry">
                        <mxPoint x="144" y="109.76999999999998" as="sourcePoint"/>
                        <mxPoint x="192" y="109.76999999999998" as="targetPoint"/>
                        <Array as="points"/>
                    </mxGeometry>
                </mxCell>
                <mxCell id="KFlzOu6OiXH6zN4VjkQO-57" value="" style="endArrow=classic;html=1;rounded=0;" parent="Dk9IfZBP1PPq3wKfmlU3-1" edge="1">
                    <mxGeometry width="50" height="50" relative="1" as="geometry">
                        <mxPoint x="144" y="138.99999999999997" as="sourcePoint"/>
                        <mxPoint x="192" y="138.99999999999997" as="targetPoint"/>
                        <Array as="points"/>
                    </mxGeometry>
                </mxCell>
                <mxCell id="KFlzOu6OiXH6zN4VjkQO-58" value="" style="endArrow=classic;html=1;rounded=0;" parent="Dk9IfZBP1PPq3wKfmlU3-1" edge="1">
                    <mxGeometry width="50" height="50" relative="1" as="geometry">
                        <mxPoint x="145" y="169.76999999999998" as="sourcePoint"/>
                        <mxPoint x="193" y="169.76999999999998" as="targetPoint"/>
                        <Array as="points"/>
                    </mxGeometry>
                </mxCell>
                <mxCell id="KFlzOu6OiXH6zN4VjkQO-59" value="" style="endArrow=classic;html=1;rounded=0;" parent="Dk9IfZBP1PPq3wKfmlU3-1" edge="1">
                    <mxGeometry width="50" height="50" relative="1" as="geometry">
                        <mxPoint x="6" y="79.76999999999998" as="sourcePoint"/>
                        <mxPoint x="54" y="79.76999999999998" as="targetPoint"/>
                        <Array as="points"/>
                    </mxGeometry>
                </mxCell>
                <mxCell id="KFlzOu6OiXH6zN4VjkQO-60" value="" style="endArrow=classic;html=1;rounded=0;" parent="Dk9IfZBP1PPq3wKfmlU3-1" edge="1">
                    <mxGeometry width="50" height="50" relative="1" as="geometry">
                        <mxPoint x="5" y="109.76999999999998" as="sourcePoint"/>
                        <mxPoint x="53" y="109.76999999999998" as="targetPoint"/>
                        <Array as="points"/>
                    </mxGeometry>
                </mxCell>
                <mxCell id="KFlzOu6OiXH6zN4VjkQO-62" value="" style="endArrow=classic;html=1;rounded=0;" parent="Dk9IfZBP1PPq3wKfmlU3-1" edge="1">
                    <mxGeometry width="50" height="50" relative="1" as="geometry">
                        <mxPoint x="5" y="146.99999999999997" as="sourcePoint"/>
                        <mxPoint x="53" y="146.99999999999997" as="targetPoint"/>
                        <Array as="points"/>
                    </mxGeometry>
                </mxCell>
                <mxCell id="B991r3YSBw1He4wbUZft-4" value="" style="endArrow=classic;html=1;rounded=0;" parent="Dk9IfZBP1PPq3wKfmlU3-1" edge="1">
                    <mxGeometry width="50" height="50" relative="1" as="geometry">
                        <mxPoint x="104" y="50" as="sourcePoint"/>
                        <mxPoint x="104" y="80" as="targetPoint"/>
                        <Array as="points">
                            <mxPoint x="104" y="70"/>
                        </Array>
                    </mxGeometry>
                </mxCell>
                <mxCell id="Dk9IfZBP1PPq3wKfmlU3-2" value="" style="group" parent="1" vertex="1" connectable="0">
                    <mxGeometry x="319" y="80" width="190" height="140" as="geometry"/>
                </mxCell>
                <mxCell id="KFlzOu6OiXH6zN4VjkQO-25" value="" style="rounded=0;whiteSpace=wrap;html=1;" parent="Dk9IfZBP1PPq3wKfmlU3-2" vertex="1">
                    <mxGeometry x="50" width="90" height="140" as="geometry"/>
                </mxCell>
                <mxCell id="KFlzOu6OiXH6zN4VjkQO-26" value="&lt;span style=&quot;font-size: 6px;&quot;&gt;LMD&lt;/span&gt;" style="text;html=1;strokeColor=none;fillColor=none;align=center;verticalAlign=middle;whiteSpace=wrap;rounded=0;" parent="Dk9IfZBP1PPq3wKfmlU3-2" vertex="1">
                    <mxGeometry y="10" width="50" height="20" as="geometry"/>
                </mxCell>
                <mxCell id="KFlzOu6OiXH6zN4VjkQO-27" value="&lt;font style=&quot;font-size: 6px;&quot;&gt;ALU_out&lt;/font&gt;" style="text;html=1;strokeColor=none;fillColor=none;align=center;verticalAlign=middle;whiteSpace=wrap;rounded=0;" parent="Dk9IfZBP1PPq3wKfmlU3-2" vertex="1">
                    <mxGeometry y="40" width="50" height="20" as="geometry"/>
                </mxCell>
                <mxCell id="KFlzOu6OiXH6zN4VjkQO-28" value="&lt;span style=&quot;font-size: 6px;&quot;&gt;RD_in&lt;/span&gt;" style="text;html=1;strokeColor=none;fillColor=none;align=center;verticalAlign=middle;whiteSpace=wrap;rounded=0;" parent="Dk9IfZBP1PPq3wKfmlU3-2" vertex="1">
                    <mxGeometry y="70" width="50" height="20" as="geometry"/>
                </mxCell>
                <mxCell id="KFlzOu6OiXH6zN4VjkQO-29" value="&lt;span style=&quot;font-size: 6px;&quot;&gt;JAL_sel&lt;/span&gt;" style="text;html=1;strokeColor=none;fillColor=none;align=center;verticalAlign=middle;whiteSpace=wrap;rounded=0;" parent="Dk9IfZBP1PPq3wKfmlU3-2" vertex="1">
                    <mxGeometry y="100" width="50" height="20" as="geometry"/>
                </mxCell>
                <mxCell id="KFlzOu6OiXH6zN4VjkQO-34" value="&lt;font style=&quot;font-size: 6px;&quot;&gt;RD_out&lt;/font&gt;" style="text;html=1;strokeColor=none;fillColor=none;align=center;verticalAlign=middle;whiteSpace=wrap;rounded=0;" parent="Dk9IfZBP1PPq3wKfmlU3-2" vertex="1">
                    <mxGeometry x="140" y="10" width="50" height="20" as="geometry"/>
                </mxCell>
                <mxCell id="KFlzOu6OiXH6zN4VjkQO-35" value="&lt;font style=&quot;font-size: 6px;&quot;&gt;WB_out&lt;/font&gt;" style="text;html=1;strokeColor=none;fillColor=none;align=center;verticalAlign=middle;whiteSpace=wrap;rounded=0;" parent="Dk9IfZBP1PPq3wKfmlU3-2" vertex="1">
                    <mxGeometry x="140" y="40" width="50" height="20" as="geometry"/>
                </mxCell>
                <mxCell id="KFlzOu6OiXH6zN4VjkQO-42" value="&lt;span style=&quot;font-size: 10px;&quot;&gt;WRITE BACK UNIT&lt;/span&gt;" style="text;html=1;strokeColor=none;fillColor=none;align=center;verticalAlign=middle;whiteSpace=wrap;rounded=0;fontSize=6;" parent="Dk9IfZBP1PPq3wKfmlU3-2" vertex="1">
                    <mxGeometry x="65" y="55" width="60" height="30" as="geometry"/>
                </mxCell>
                <mxCell id="KFlzOu6OiXH6zN4VjkQO-47" value="" style="endArrow=classic;html=1;rounded=0;" parent="Dk9IfZBP1PPq3wKfmlU3-2" edge="1">
                    <mxGeometry width="50" height="50" relative="1" as="geometry">
                        <mxPoint x="140" y="30" as="sourcePoint"/>
                        <mxPoint x="188" y="30" as="targetPoint"/>
                        <Array as="points"/>
                    </mxGeometry>
                </mxCell>
                <mxCell id="KFlzOu6OiXH6zN4VjkQO-48" value="" style="endArrow=classic;html=1;rounded=0;" parent="Dk9IfZBP1PPq3wKfmlU3-2" edge="1">
                    <mxGeometry width="50" height="50" relative="1" as="geometry">
                        <mxPoint x="140" y="60" as="sourcePoint"/>
                        <mxPoint x="188" y="60" as="targetPoint"/>
                        <Array as="points"/>
                    </mxGeometry>
                </mxCell>
                <mxCell id="KFlzOu6OiXH6zN4VjkQO-49" value="" style="endArrow=classic;html=1;rounded=0;" parent="Dk9IfZBP1PPq3wKfmlU3-2" edge="1">
                    <mxGeometry width="50" height="50" relative="1" as="geometry">
                        <mxPoint x="2" y="120" as="sourcePoint"/>
                        <mxPoint x="50" y="120" as="targetPoint"/>
                        <Array as="points"/>
                    </mxGeometry>
                </mxCell>
                <mxCell id="KFlzOu6OiXH6zN4VjkQO-50" value="" style="endArrow=classic;html=1;rounded=0;" parent="Dk9IfZBP1PPq3wKfmlU3-2" edge="1">
                    <mxGeometry width="50" height="50" relative="1" as="geometry">
                        <mxPoint x="2" y="90" as="sourcePoint"/>
                        <mxPoint x="50" y="90" as="targetPoint"/>
                        <Array as="points"/>
                    </mxGeometry>
                </mxCell>
                <mxCell id="KFlzOu6OiXH6zN4VjkQO-51" value="" style="endArrow=classic;html=1;rounded=0;" parent="Dk9IfZBP1PPq3wKfmlU3-2" edge="1">
                    <mxGeometry width="50" height="50" relative="1" as="geometry">
                        <mxPoint x="2" y="60" as="sourcePoint"/>
                        <mxPoint x="50" y="60" as="targetPoint"/>
                        <Array as="points"/>
                    </mxGeometry>
                </mxCell>
                <mxCell id="KFlzOu6OiXH6zN4VjkQO-52" value="" style="endArrow=classic;html=1;rounded=0;" parent="Dk9IfZBP1PPq3wKfmlU3-2" edge="1">
                    <mxGeometry width="50" height="50" relative="1" as="geometry">
                        <mxPoint x="2" y="29.810000000000002" as="sourcePoint"/>
                        <mxPoint x="50" y="29.810000000000002" as="targetPoint"/>
                        <Array as="points"/>
                    </mxGeometry>
                </mxCell>
                <mxCell id="Dk9IfZBP1PPq3wKfmlU3-3" value="" style="group" parent="1" vertex="1" connectable="0">
                    <mxGeometry x="72.5" y="260" width="145" height="192" as="geometry"/>
                </mxCell>
                <mxCell id="8HG2ixNc3zNFBNVR3IF7-1" value="" style="rounded=0;whiteSpace=wrap;html=1;fontSize=6;" parent="Dk9IfZBP1PPq3wKfmlU3-3" vertex="1">
                    <mxGeometry x="65" y="11" width="30" height="70" as="geometry"/>
                </mxCell>
                <mxCell id="8HG2ixNc3zNFBNVR3IF7-2" value="" style="triangle;whiteSpace=wrap;html=1;fontSize=6;" parent="Dk9IfZBP1PPq3wKfmlU3-3" vertex="1">
                    <mxGeometry x="65" y="56" width="10" height="15" as="geometry"/>
                </mxCell>
                <mxCell id="8HG2ixNc3zNFBNVR3IF7-3" value="" style="endArrow=none;html=1;rounded=0;fontSize=6;" parent="Dk9IfZBP1PPq3wKfmlU3-3" edge="1">
                    <mxGeometry width="50" height="50" relative="1" as="geometry">
                        <mxPoint x="55" y="63.450000000000045" as="sourcePoint"/>
                        <mxPoint x="65" y="63.450000000000045" as="targetPoint"/>
                    </mxGeometry>
                </mxCell>
                <mxCell id="8HG2ixNc3zNFBNVR3IF7-4" value="" style="endArrow=classic;html=1;rounded=0;" parent="Dk9IfZBP1PPq3wKfmlU3-3" edge="1">
                    <mxGeometry width="50" height="50" relative="1" as="geometry">
                        <mxPoint x="17" y="21.000000000000057" as="sourcePoint"/>
                        <mxPoint x="65" y="21.000000000000057" as="targetPoint"/>
                        <Array as="points"/>
                    </mxGeometry>
                </mxCell>
                <mxCell id="8HG2ixNc3zNFBNVR3IF7-5" value="" style="endArrow=classic;html=1;rounded=0;" parent="Dk9IfZBP1PPq3wKfmlU3-3" edge="1">
                    <mxGeometry width="50" height="50" relative="1" as="geometry">
                        <mxPoint x="95" y="21.000000000000057" as="sourcePoint"/>
                        <mxPoint x="143" y="21.000000000000057" as="targetPoint"/>
                        <Array as="points"/>
                    </mxGeometry>
                </mxCell>
                <mxCell id="8HG2ixNc3zNFBNVR3IF7-21" value="&lt;span style=&quot;font-size: 6px;&quot;&gt;RD_reg_out&lt;/span&gt;" style="text;html=1;strokeColor=none;fillColor=none;align=center;verticalAlign=middle;whiteSpace=wrap;rounded=0;" parent="Dk9IfZBP1PPq3wKfmlU3-3" vertex="1">
                    <mxGeometry x="95" width="50" height="20" as="geometry"/>
                </mxCell>
                <mxCell id="8HG2ixNc3zNFBNVR3IF7-22" value="&lt;span style=&quot;font-size: 6px;&quot;&gt;RD_reg_in&lt;/span&gt;" style="text;html=1;strokeColor=none;fillColor=none;align=center;verticalAlign=middle;whiteSpace=wrap;rounded=0;" parent="Dk9IfZBP1PPq3wKfmlU3-3" vertex="1">
                    <mxGeometry x="5" y="1" width="50" height="20" as="geometry"/>
                </mxCell>
                <mxCell id="8HG2ixNc3zNFBNVR3IF7-24" value="" style="rounded=0;whiteSpace=wrap;html=1;fontSize=6;" parent="Dk9IfZBP1PPq3wKfmlU3-3" vertex="1">
                    <mxGeometry x="60" y="122" width="30" height="70" as="geometry"/>
                </mxCell>
                <mxCell id="8HG2ixNc3zNFBNVR3IF7-25" value="" style="triangle;whiteSpace=wrap;html=1;fontSize=6;" parent="Dk9IfZBP1PPq3wKfmlU3-3" vertex="1">
                    <mxGeometry x="60" y="167" width="10" height="15" as="geometry"/>
                </mxCell>
                <mxCell id="8HG2ixNc3zNFBNVR3IF7-26" value="" style="endArrow=none;html=1;rounded=0;fontSize=6;" parent="Dk9IfZBP1PPq3wKfmlU3-3" edge="1">
                    <mxGeometry width="50" height="50" relative="1" as="geometry">
                        <mxPoint x="50" y="174.45000000000005" as="sourcePoint"/>
                        <mxPoint x="60" y="174.45000000000005" as="targetPoint"/>
                    </mxGeometry>
                </mxCell>
                <mxCell id="8HG2ixNc3zNFBNVR3IF7-27" value="" style="endArrow=classic;html=1;rounded=0;" parent="Dk9IfZBP1PPq3wKfmlU3-3" edge="1">
                    <mxGeometry width="50" height="50" relative="1" as="geometry">
                        <mxPoint x="12" y="132" as="sourcePoint"/>
                        <mxPoint x="60" y="132" as="targetPoint"/>
                        <Array as="points"/>
                    </mxGeometry>
                </mxCell>
                <mxCell id="8HG2ixNc3zNFBNVR3IF7-28" value="" style="endArrow=classic;html=1;rounded=0;" parent="Dk9IfZBP1PPq3wKfmlU3-3" edge="1">
                    <mxGeometry width="50" height="50" relative="1" as="geometry">
                        <mxPoint x="90" y="132" as="sourcePoint"/>
                        <mxPoint x="138" y="132" as="targetPoint"/>
                        <Array as="points"/>
                    </mxGeometry>
                </mxCell>
                <mxCell id="8HG2ixNc3zNFBNVR3IF7-29" value="&lt;span style=&quot;font-size: 6px;&quot;&gt;RD_reg_out&lt;/span&gt;" style="text;html=1;strokeColor=none;fillColor=none;align=center;verticalAlign=middle;whiteSpace=wrap;rounded=0;" parent="Dk9IfZBP1PPq3wKfmlU3-3" vertex="1">
                    <mxGeometry x="90" y="111" width="50" height="20" as="geometry"/>
                </mxCell>
                <mxCell id="8HG2ixNc3zNFBNVR3IF7-30" value="&lt;span style=&quot;font-size: 6px;&quot;&gt;RD_reg_in&lt;/span&gt;" style="text;html=1;strokeColor=none;fillColor=none;align=center;verticalAlign=middle;whiteSpace=wrap;rounded=0;" parent="Dk9IfZBP1PPq3wKfmlU3-3" vertex="1">
                    <mxGeometry y="112" width="50" height="20" as="geometry"/>
                </mxCell>
                <mxCell id="Dk9IfZBP1PPq3wKfmlU3-4" value="" style="group" parent="1" vertex="1" connectable="0">
                    <mxGeometry x="344" y="237.5" width="139" height="237" as="geometry"/>
                </mxCell>
                <mxCell id="B991r3YSBw1He4wbUZft-1" value="" style="shape=trapezoid;perimeter=trapezoidPerimeter;whiteSpace=wrap;html=1;fixedSize=1;rotation=90;" parent="Dk9IfZBP1PPq3wKfmlU3-4" vertex="1">
                    <mxGeometry x="36" y="61" width="80" height="30" as="geometry"/>
                </mxCell>
                <mxCell id="B991r3YSBw1He4wbUZft-2" value="" style="endArrow=classic;html=1;rounded=0;" parent="Dk9IfZBP1PPq3wKfmlU3-4" edge="1">
                    <mxGeometry width="50" height="50" relative="1" as="geometry">
                        <mxPoint x="78" y="17" as="sourcePoint"/>
                        <mxPoint x="78" y="47" as="targetPoint"/>
                        <Array as="points">
                            <mxPoint x="78" y="37"/>
                        </Array>
                    </mxGeometry>
                </mxCell>
                <mxCell id="B991r3YSBw1He4wbUZft-6" value="" style="endArrow=classic;html=1;rounded=0;" parent="Dk9IfZBP1PPq3wKfmlU3-4" edge="1">
                    <mxGeometry width="50" height="50" relative="1" as="geometry">
                        <mxPoint x="12" y="61" as="sourcePoint"/>
                        <mxPoint x="60" y="61" as="targetPoint"/>
                        <Array as="points"/>
                    </mxGeometry>
                </mxCell>
                <mxCell id="B991r3YSBw1He4wbUZft-7" value="" style="endArrow=classic;html=1;rounded=0;" parent="Dk9IfZBP1PPq3wKfmlU3-4" edge="1">
                    <mxGeometry width="50" height="50" relative="1" as="geometry">
                        <mxPoint x="12" y="90" as="sourcePoint"/>
                        <mxPoint x="60" y="90" as="targetPoint"/>
                        <Array as="points"/>
                    </mxGeometry>
                </mxCell>
                <mxCell id="B991r3YSBw1He4wbUZft-8" value="" style="endArrow=classic;html=1;rounded=0;" parent="Dk9IfZBP1PPq3wKfmlU3-4" edge="1">
                    <mxGeometry width="50" height="50" relative="1" as="geometry">
                        <mxPoint x="91" y="75.83000000000004" as="sourcePoint"/>
                        <mxPoint x="139" y="75.83000000000004" as="targetPoint"/>
                        <Array as="points"/>
                    </mxGeometry>
                </mxCell>
                <mxCell id="B991r3YSBw1He4wbUZft-10" value="&lt;span style=&quot;font-size: 6px;&quot;&gt;control&lt;/span&gt;" style="text;html=1;strokeColor=none;fillColor=none;align=center;verticalAlign=middle;whiteSpace=wrap;rounded=0;" parent="Dk9IfZBP1PPq3wKfmlU3-4" vertex="1">
                    <mxGeometry x="53" width="50" height="20" as="geometry"/>
                </mxCell>
                <mxCell id="B991r3YSBw1He4wbUZft-11" value="&lt;span style=&quot;font-size: 6px;&quot;&gt;WB_out&lt;/span&gt;" style="text;html=1;strokeColor=none;fillColor=none;align=center;verticalAlign=middle;whiteSpace=wrap;rounded=0;" parent="Dk9IfZBP1PPq3wKfmlU3-4" vertex="1">
                    <mxGeometry x="88" y="54" width="50" height="20" as="geometry"/>
                </mxCell>
                <mxCell id="B991r3YSBw1He4wbUZft-12" value="&lt;span style=&quot;font-size: 6px;&quot;&gt;LMD&lt;/span&gt;" style="text;html=1;strokeColor=none;fillColor=none;align=center;verticalAlign=middle;whiteSpace=wrap;rounded=0;" parent="Dk9IfZBP1PPq3wKfmlU3-4" vertex="1">
                    <mxGeometry x="3" y="41" width="50" height="20" as="geometry"/>
                </mxCell>
                <mxCell id="B991r3YSBw1He4wbUZft-13" value="&lt;span style=&quot;font-size: 6px;&quot;&gt;ALU_out&lt;/span&gt;" style="text;html=1;strokeColor=none;fillColor=none;align=center;verticalAlign=middle;whiteSpace=wrap;rounded=0;" parent="Dk9IfZBP1PPq3wKfmlU3-4" vertex="1">
                    <mxGeometry x="8" y="69" width="50" height="20" as="geometry"/>
                </mxCell>
                <mxCell id="B991r3YSBw1He4wbUZft-23" value="" style="group" parent="Dk9IfZBP1PPq3wKfmlU3-4" vertex="1" connectable="0">
                    <mxGeometry y="121" width="136" height="116" as="geometry"/>
                </mxCell>
                <mxCell id="B991r3YSBw1He4wbUZft-14" value="" style="shape=trapezoid;perimeter=trapezoidPerimeter;whiteSpace=wrap;html=1;fixedSize=1;rotation=90;" parent="B991r3YSBw1He4wbUZft-23" vertex="1">
                    <mxGeometry x="33" y="61" width="80" height="30" as="geometry"/>
                </mxCell>
                <mxCell id="B991r3YSBw1He4wbUZft-15" value="" style="endArrow=classic;html=1;rounded=0;" parent="B991r3YSBw1He4wbUZft-23" edge="1">
                    <mxGeometry width="50" height="50" relative="1" as="geometry">
                        <mxPoint x="75" y="17" as="sourcePoint"/>
                        <mxPoint x="75" y="47" as="targetPoint"/>
                        <Array as="points">
                            <mxPoint x="75" y="37"/>
                        </Array>
                    </mxGeometry>
                </mxCell>
                <mxCell id="B991r3YSBw1He4wbUZft-16" value="" style="endArrow=classic;html=1;rounded=0;" parent="B991r3YSBw1He4wbUZft-23" edge="1">
                    <mxGeometry width="50" height="50" relative="1" as="geometry">
                        <mxPoint x="9" y="61" as="sourcePoint"/>
                        <mxPoint x="57" y="61" as="targetPoint"/>
                        <Array as="points"/>
                    </mxGeometry>
                </mxCell>
                <mxCell id="B991r3YSBw1He4wbUZft-17" value="" style="endArrow=classic;html=1;rounded=0;" parent="B991r3YSBw1He4wbUZft-23" edge="1">
                    <mxGeometry width="50" height="50" relative="1" as="geometry">
                        <mxPoint x="9" y="90" as="sourcePoint"/>
                        <mxPoint x="57" y="90" as="targetPoint"/>
                        <Array as="points"/>
                    </mxGeometry>
                </mxCell>
                <mxCell id="B991r3YSBw1He4wbUZft-18" value="" style="endArrow=classic;html=1;rounded=0;" parent="B991r3YSBw1He4wbUZft-23" edge="1">
                    <mxGeometry width="50" height="50" relative="1" as="geometry">
                        <mxPoint x="88" y="75.83000000000004" as="sourcePoint"/>
                        <mxPoint x="136" y="75.83000000000004" as="targetPoint"/>
                        <Array as="points"/>
                    </mxGeometry>
                </mxCell>
                <mxCell id="B991r3YSBw1He4wbUZft-19" value="&lt;span style=&quot;font-size: 6px;&quot;&gt;JAL_SEL&lt;/span&gt;" style="text;html=1;strokeColor=none;fillColor=none;align=center;verticalAlign=middle;whiteSpace=wrap;rounded=0;" parent="B991r3YSBw1He4wbUZft-23" vertex="1">
                    <mxGeometry x="50" width="50" height="20" as="geometry"/>
                </mxCell>
                <mxCell id="B991r3YSBw1He4wbUZft-20" value="&lt;span style=&quot;font-size: 6px;&quot;&gt;WB_out&lt;/span&gt;" style="text;html=1;strokeColor=none;fillColor=none;align=center;verticalAlign=middle;whiteSpace=wrap;rounded=0;" parent="B991r3YSBw1He4wbUZft-23" vertex="1">
                    <mxGeometry x="85" y="54" width="50" height="20" as="geometry"/>
                </mxCell>
                <mxCell id="B991r3YSBw1He4wbUZft-21" value="&lt;span style=&quot;font-size: 6px;&quot;&gt;LMD&lt;/span&gt;" style="text;html=1;strokeColor=none;fillColor=none;align=center;verticalAlign=middle;whiteSpace=wrap;rounded=0;" parent="B991r3YSBw1He4wbUZft-23" vertex="1">
                    <mxGeometry y="41" width="50" height="20" as="geometry"/>
                </mxCell>
                <mxCell id="B991r3YSBw1He4wbUZft-22" value="&lt;span style=&quot;font-size: 6px;&quot;&gt;ALU_out&lt;/span&gt;" style="text;html=1;strokeColor=none;fillColor=none;align=center;verticalAlign=middle;whiteSpace=wrap;rounded=0;" parent="B991r3YSBw1He4wbUZft-23" vertex="1">
                    <mxGeometry x="5" y="69" width="50" height="20" as="geometry"/>
                </mxCell>
            </root>
        </mxGraphModel>
    </diagram>
    <diagram id="xx3HRGE1Cxf_2V_6MFGr" name="alu">
        <mxGraphModel dx="279" dy="506" grid="1" gridSize="10" guides="1" tooltips="1" connect="1" arrows="1" fold="1" page="1" pageScale="1" pageWidth="827" pageHeight="1169" math="0" shadow="0">
            <root>
                <mxCell id="0"/>
                <mxCell id="1" parent="0"/>
                <mxCell id="QYOjEJxy-fYialzLS3Ft-4" value="" style="group" parent="1" vertex="1" connectable="0">
                    <mxGeometry x="46" y="83" width="192" height="140" as="geometry"/>
                </mxCell>
                <mxCell id="gBPq_-wyO7PmApsnCxw0-1" value="" style="rounded=0;whiteSpace=wrap;html=1;" parent="QYOjEJxy-fYialzLS3Ft-4" vertex="1">
                    <mxGeometry x="54" width="90" height="140" as="geometry"/>
                </mxCell>
                <mxCell id="gBPq_-wyO7PmApsnCxw0-2" value="&lt;span style=&quot;font-size: 6px;&quot;&gt;operand_A&lt;/span&gt;" style="text;html=1;strokeColor=none;fillColor=none;align=center;verticalAlign=middle;whiteSpace=wrap;rounded=0;" parent="QYOjEJxy-fYialzLS3Ft-4" vertex="1">
                    <mxGeometry x="4" y="10" width="50" height="20" as="geometry"/>
                </mxCell>
                <mxCell id="gBPq_-wyO7PmApsnCxw0-3" value="&lt;font style=&quot;font-size: 6px;&quot;&gt;operand_B&lt;/font&gt;" style="text;html=1;strokeColor=none;fillColor=none;align=center;verticalAlign=middle;whiteSpace=wrap;rounded=0;" parent="QYOjEJxy-fYialzLS3Ft-4" vertex="1">
                    <mxGeometry x="4" y="40" width="50" height="20" as="geometry"/>
                </mxCell>
                <mxCell id="gBPq_-wyO7PmApsnCxw0-4" value="&lt;span style=&quot;font-size: 6px;&quot;&gt;type_alu_operation&lt;/span&gt;" style="text;html=1;strokeColor=none;fillColor=none;align=center;verticalAlign=middle;whiteSpace=wrap;rounded=0;" parent="QYOjEJxy-fYialzLS3Ft-4" vertex="1">
                    <mxGeometry y="75" width="50" height="20" as="geometry"/>
                </mxCell>
                <mxCell id="gBPq_-wyO7PmApsnCxw0-5" value="&lt;font style=&quot;font-size: 6px;&quot;&gt;output&lt;/font&gt;" style="text;html=1;strokeColor=none;fillColor=none;align=center;verticalAlign=middle;whiteSpace=wrap;rounded=0;" parent="QYOjEJxy-fYialzLS3Ft-4" vertex="1">
                    <mxGeometry x="139" y="10" width="50" height="20" as="geometry"/>
                </mxCell>
                <mxCell id="gBPq_-wyO7PmApsnCxw0-6" value="&lt;font style=&quot;font-size: 6px;&quot;&gt;cout&lt;/font&gt;" style="text;html=1;strokeColor=none;fillColor=none;align=center;verticalAlign=middle;whiteSpace=wrap;rounded=0;" parent="QYOjEJxy-fYialzLS3Ft-4" vertex="1">
                    <mxGeometry x="137" y="39" width="50" height="20" as="geometry"/>
                </mxCell>
                <mxCell id="gBPq_-wyO7PmApsnCxw0-9" value="&lt;span style=&quot;font-size: 10px;&quot;&gt;ALU&lt;/span&gt;" style="text;html=1;strokeColor=none;fillColor=none;align=center;verticalAlign=middle;whiteSpace=wrap;rounded=0;fontSize=6;" parent="QYOjEJxy-fYialzLS3Ft-4" vertex="1">
                    <mxGeometry x="69" y="55" width="60" height="30" as="geometry"/>
                </mxCell>
                <mxCell id="gBPq_-wyO7PmApsnCxw0-14" value="" style="endArrow=classic;html=1;rounded=0;" parent="QYOjEJxy-fYialzLS3Ft-4" edge="1">
                    <mxGeometry width="50" height="50" relative="1" as="geometry">
                        <mxPoint x="144" y="29.769999999999982" as="sourcePoint"/>
                        <mxPoint x="192" y="29.769999999999982" as="targetPoint"/>
                        <Array as="points"/>
                    </mxGeometry>
                </mxCell>
                <mxCell id="gBPq_-wyO7PmApsnCxw0-15" value="" style="endArrow=classic;html=1;rounded=0;" parent="QYOjEJxy-fYialzLS3Ft-4" edge="1">
                    <mxGeometry width="50" height="50" relative="1" as="geometry">
                        <mxPoint x="144" y="59.76999999999998" as="sourcePoint"/>
                        <mxPoint x="192" y="59.76999999999998" as="targetPoint"/>
                        <Array as="points"/>
                    </mxGeometry>
                </mxCell>
                <mxCell id="gBPq_-wyO7PmApsnCxw0-18" value="" style="endArrow=classic;html=1;rounded=0;" parent="QYOjEJxy-fYialzLS3Ft-4" edge="1">
                    <mxGeometry width="50" height="50" relative="1" as="geometry">
                        <mxPoint x="6" y="29.769999999999982" as="sourcePoint"/>
                        <mxPoint x="54" y="29.769999999999982" as="targetPoint"/>
                        <Array as="points"/>
                    </mxGeometry>
                </mxCell>
                <mxCell id="gBPq_-wyO7PmApsnCxw0-19" value="" style="endArrow=classic;html=1;rounded=0;" parent="QYOjEJxy-fYialzLS3Ft-4" edge="1">
                    <mxGeometry width="50" height="50" relative="1" as="geometry">
                        <mxPoint x="5" y="59.76999999999998" as="sourcePoint"/>
                        <mxPoint x="53" y="59.76999999999998" as="targetPoint"/>
                        <Array as="points"/>
                    </mxGeometry>
                </mxCell>
                <mxCell id="gBPq_-wyO7PmApsnCxw0-20" value="" style="endArrow=classic;html=1;rounded=0;" parent="QYOjEJxy-fYialzLS3Ft-4" edge="1">
                    <mxGeometry width="50" height="50" relative="1" as="geometry">
                        <mxPoint x="5" y="97" as="sourcePoint"/>
                        <mxPoint x="53" y="97" as="targetPoint"/>
                        <Array as="points"/>
                    </mxGeometry>
                </mxCell>
                <mxCell id="QYOjEJxy-fYialzLS3Ft-5" value="" style="group" parent="1" vertex="1" connectable="0">
                    <mxGeometry x="70" y="310" width="200" height="140" as="geometry"/>
                </mxCell>
                <mxCell id="gBPq_-wyO7PmApsnCxw0-23" value="" style="rounded=0;whiteSpace=wrap;html=1;" parent="QYOjEJxy-fYialzLS3Ft-5" vertex="1">
                    <mxGeometry x="54" width="90" height="140" as="geometry"/>
                </mxCell>
                <mxCell id="gBPq_-wyO7PmApsnCxw0-24" value="&lt;span style=&quot;font-size: 6px;&quot;&gt;operand_A&lt;/span&gt;" style="text;html=1;strokeColor=none;fillColor=none;align=center;verticalAlign=middle;whiteSpace=wrap;rounded=0;" parent="QYOjEJxy-fYialzLS3Ft-5" vertex="1">
                    <mxGeometry x="4" y="10" width="50" height="20" as="geometry"/>
                </mxCell>
                <mxCell id="gBPq_-wyO7PmApsnCxw0-25" value="&lt;span style=&quot;font-size: 6px;&quot;&gt;operand_B&lt;/span&gt;" style="text;html=1;strokeColor=none;fillColor=none;align=center;verticalAlign=middle;whiteSpace=wrap;rounded=0;" parent="QYOjEJxy-fYialzLS3Ft-5" vertex="1">
                    <mxGeometry x="4" y="40" width="50" height="20" as="geometry"/>
                </mxCell>
                <mxCell id="gBPq_-wyO7PmApsnCxw0-26" value="&lt;span style=&quot;font-size: 6px;&quot;&gt;to_mem_stage_reg&lt;/span&gt;" style="text;html=1;strokeColor=none;fillColor=none;align=center;verticalAlign=middle;whiteSpace=wrap;rounded=0;" parent="QYOjEJxy-fYialzLS3Ft-5" vertex="1">
                    <mxGeometry y="75" width="50" height="20" as="geometry"/>
                </mxCell>
                <mxCell id="gBPq_-wyO7PmApsnCxw0-27" value="&lt;font style=&quot;font-size: 6px;&quot;&gt;RD_reg_out&lt;/font&gt;" style="text;html=1;strokeColor=none;fillColor=none;align=center;verticalAlign=middle;whiteSpace=wrap;rounded=0;" parent="QYOjEJxy-fYialzLS3Ft-5" vertex="1">
                    <mxGeometry x="139" y="10" width="50" height="20" as="geometry"/>
                </mxCell>
                <mxCell id="gBPq_-wyO7PmApsnCxw0-28" value="&lt;font style=&quot;font-size: 6px;&quot;&gt;memory_stage_out&lt;/font&gt;" style="text;html=1;strokeColor=none;fillColor=none;align=center;verticalAlign=middle;whiteSpace=wrap;rounded=0;" parent="QYOjEJxy-fYialzLS3Ft-5" vertex="1">
                    <mxGeometry x="150" y="40" width="50" height="20" as="geometry"/>
                </mxCell>
                <mxCell id="gBPq_-wyO7PmApsnCxw0-29" value="&lt;span style=&quot;font-size: 6px;&quot;&gt;ALU_out&lt;/span&gt;" style="text;html=1;strokeColor=none;fillColor=none;align=center;verticalAlign=middle;whiteSpace=wrap;rounded=0;" parent="QYOjEJxy-fYialzLS3Ft-5" vertex="1">
                    <mxGeometry x="144" y="70" width="50" height="20" as="geometry"/>
                </mxCell>
                <mxCell id="gBPq_-wyO7PmApsnCxw0-30" value="&lt;font style=&quot;font-size: 6px;&quot;&gt;instr_fetched&lt;/font&gt;" style="text;html=1;strokeColor=none;fillColor=none;align=center;verticalAlign=middle;whiteSpace=wrap;rounded=0;" parent="QYOjEJxy-fYialzLS3Ft-5" vertex="1">
                    <mxGeometry x="144" y="100" width="50" height="20" as="geometry"/>
                </mxCell>
                <mxCell id="gBPq_-wyO7PmApsnCxw0-31" value="&lt;span style=&quot;font-size: 10px;&quot;&gt;COMPARATOR UNIT&lt;br&gt;&lt;/span&gt;" style="text;html=1;strokeColor=none;fillColor=none;align=center;verticalAlign=middle;whiteSpace=wrap;rounded=0;fontSize=6;" parent="QYOjEJxy-fYialzLS3Ft-5" vertex="1">
                    <mxGeometry x="69" y="55" width="60" height="30" as="geometry"/>
                </mxCell>
                <mxCell id="gBPq_-wyO7PmApsnCxw0-36" value="" style="endArrow=classic;html=1;rounded=0;" parent="QYOjEJxy-fYialzLS3Ft-5" edge="1">
                    <mxGeometry width="50" height="50" relative="1" as="geometry">
                        <mxPoint x="144" y="29.769999999999982" as="sourcePoint"/>
                        <mxPoint x="192" y="29.769999999999982" as="targetPoint"/>
                        <Array as="points"/>
                    </mxGeometry>
                </mxCell>
                <mxCell id="gBPq_-wyO7PmApsnCxw0-37" value="" style="endArrow=classic;html=1;rounded=0;" parent="QYOjEJxy-fYialzLS3Ft-5" edge="1">
                    <mxGeometry width="50" height="50" relative="1" as="geometry">
                        <mxPoint x="144" y="59.76999999999998" as="sourcePoint"/>
                        <mxPoint x="192" y="59.76999999999998" as="targetPoint"/>
                        <Array as="points"/>
                    </mxGeometry>
                </mxCell>
                <mxCell id="gBPq_-wyO7PmApsnCxw0-38" value="" style="endArrow=classic;html=1;rounded=0;" parent="QYOjEJxy-fYialzLS3Ft-5" edge="1">
                    <mxGeometry width="50" height="50" relative="1" as="geometry">
                        <mxPoint x="144" y="89" as="sourcePoint"/>
                        <mxPoint x="192" y="89" as="targetPoint"/>
                        <Array as="points"/>
                    </mxGeometry>
                </mxCell>
                <mxCell id="gBPq_-wyO7PmApsnCxw0-39" value="" style="endArrow=classic;html=1;rounded=0;" parent="QYOjEJxy-fYialzLS3Ft-5" edge="1">
                    <mxGeometry width="50" height="50" relative="1" as="geometry">
                        <mxPoint x="145" y="119.76999999999998" as="sourcePoint"/>
                        <mxPoint x="193" y="119.76999999999998" as="targetPoint"/>
                        <Array as="points"/>
                    </mxGeometry>
                </mxCell>
                <mxCell id="gBPq_-wyO7PmApsnCxw0-40" value="" style="endArrow=classic;html=1;rounded=0;" parent="QYOjEJxy-fYialzLS3Ft-5" edge="1">
                    <mxGeometry width="50" height="50" relative="1" as="geometry">
                        <mxPoint x="6" y="29.769999999999982" as="sourcePoint"/>
                        <mxPoint x="54" y="29.769999999999982" as="targetPoint"/>
                        <Array as="points"/>
                    </mxGeometry>
                </mxCell>
                <mxCell id="gBPq_-wyO7PmApsnCxw0-41" value="" style="endArrow=classic;html=1;rounded=0;" parent="QYOjEJxy-fYialzLS3Ft-5" edge="1">
                    <mxGeometry width="50" height="50" relative="1" as="geometry">
                        <mxPoint x="5" y="59.76999999999998" as="sourcePoint"/>
                        <mxPoint x="53" y="59.76999999999998" as="targetPoint"/>
                        <Array as="points"/>
                    </mxGeometry>
                </mxCell>
                <mxCell id="gBPq_-wyO7PmApsnCxw0-42" value="" style="endArrow=classic;html=1;rounded=0;" parent="QYOjEJxy-fYialzLS3Ft-5" edge="1">
                    <mxGeometry width="50" height="50" relative="1" as="geometry">
                        <mxPoint x="5" y="97" as="sourcePoint"/>
                        <mxPoint x="53" y="97" as="targetPoint"/>
                        <Array as="points"/>
                    </mxGeometry>
                </mxCell>
                <mxCell id="QYOjEJxy-fYialzLS3Ft-6" value="" style="group" parent="1" vertex="1" connectable="0">
                    <mxGeometry x="340" y="320" width="192" height="140" as="geometry"/>
                </mxCell>
                <mxCell id="gBPq_-wyO7PmApsnCxw0-44" value="" style="rounded=0;whiteSpace=wrap;html=1;" parent="QYOjEJxy-fYialzLS3Ft-6" vertex="1">
                    <mxGeometry x="54" width="90" height="140" as="geometry"/>
                </mxCell>
                <mxCell id="gBPq_-wyO7PmApsnCxw0-47" value="&lt;span style=&quot;font-size: 6px;&quot;&gt;sel&lt;/span&gt;" style="text;html=1;strokeColor=none;fillColor=none;align=center;verticalAlign=middle;whiteSpace=wrap;rounded=0;" parent="QYOjEJxy-fYialzLS3Ft-6" vertex="1">
                    <mxGeometry y="61" width="50" height="20" as="geometry"/>
                </mxCell>
                <mxCell id="gBPq_-wyO7PmApsnCxw0-48" value="&lt;font style=&quot;font-size: 6px;&quot;&gt;output&lt;/font&gt;" style="text;html=1;strokeColor=none;fillColor=none;align=center;verticalAlign=middle;whiteSpace=wrap;rounded=0;" parent="QYOjEJxy-fYialzLS3Ft-6" vertex="1">
                    <mxGeometry x="139" y="10" width="50" height="20" as="geometry"/>
                </mxCell>
                <mxCell id="gBPq_-wyO7PmApsnCxw0-52" value="&lt;span style=&quot;font-size: 10px;&quot;&gt;SHIFT UNIT&lt;br&gt;&lt;/span&gt;" style="text;html=1;strokeColor=none;fillColor=none;align=center;verticalAlign=middle;whiteSpace=wrap;rounded=0;fontSize=6;" parent="QYOjEJxy-fYialzLS3Ft-6" vertex="1">
                    <mxGeometry x="69" y="55" width="60" height="30" as="geometry"/>
                </mxCell>
                <mxCell id="gBPq_-wyO7PmApsnCxw0-57" value="" style="endArrow=classic;html=1;rounded=0;" parent="QYOjEJxy-fYialzLS3Ft-6" edge="1">
                    <mxGeometry width="50" height="50" relative="1" as="geometry">
                        <mxPoint x="144" y="29.769999999999982" as="sourcePoint"/>
                        <mxPoint x="192" y="29.769999999999982" as="targetPoint"/>
                        <Array as="points"/>
                    </mxGeometry>
                </mxCell>
                <mxCell id="gBPq_-wyO7PmApsnCxw0-63" value="" style="endArrow=classic;html=1;rounded=0;" parent="QYOjEJxy-fYialzLS3Ft-6" edge="1">
                    <mxGeometry width="50" height="50" relative="1" as="geometry">
                        <mxPoint x="5" y="83" as="sourcePoint"/>
                        <mxPoint x="53" y="83" as="targetPoint"/>
                        <Array as="points"/>
                    </mxGeometry>
                </mxCell>
                <mxCell id="Kh1ujmrubnzrCM77vEyY-44" value="&lt;span style=&quot;font-size: 6px;&quot;&gt;operand_A&lt;/span&gt;" style="text;html=1;strokeColor=none;fillColor=none;align=center;verticalAlign=middle;whiteSpace=wrap;rounded=0;" parent="QYOjEJxy-fYialzLS3Ft-6" vertex="1">
                    <mxGeometry x="4" width="50" height="20" as="geometry"/>
                </mxCell>
                <mxCell id="Kh1ujmrubnzrCM77vEyY-45" value="&lt;span style=&quot;font-size: 6px;&quot;&gt;operand_B&lt;/span&gt;" style="text;html=1;strokeColor=none;fillColor=none;align=center;verticalAlign=middle;whiteSpace=wrap;rounded=0;" parent="QYOjEJxy-fYialzLS3Ft-6" vertex="1">
                    <mxGeometry x="4" y="30" width="50" height="20" as="geometry"/>
                </mxCell>
                <mxCell id="Kh1ujmrubnzrCM77vEyY-46" value="" style="endArrow=classic;html=1;rounded=0;" parent="QYOjEJxy-fYialzLS3Ft-6" edge="1">
                    <mxGeometry width="50" height="50" relative="1" as="geometry">
                        <mxPoint x="6" y="19.769999999999868" as="sourcePoint"/>
                        <mxPoint x="54" y="19.769999999999868" as="targetPoint"/>
                        <Array as="points"/>
                    </mxGeometry>
                </mxCell>
                <mxCell id="Kh1ujmrubnzrCM77vEyY-47" value="" style="endArrow=classic;html=1;rounded=0;" parent="QYOjEJxy-fYialzLS3Ft-6" edge="1">
                    <mxGeometry width="50" height="50" relative="1" as="geometry">
                        <mxPoint x="5" y="49.76999999999987" as="sourcePoint"/>
                        <mxPoint x="53" y="49.76999999999987" as="targetPoint"/>
                        <Array as="points"/>
                    </mxGeometry>
                </mxCell>
                <mxCell id="QYOjEJxy-fYialzLS3Ft-7" value="" style="group" parent="1" vertex="1" connectable="0">
                    <mxGeometry x="580" y="320" width="192" height="140" as="geometry"/>
                </mxCell>
                <mxCell id="gBPq_-wyO7PmApsnCxw0-86" value="" style="rounded=0;whiteSpace=wrap;html=1;" parent="QYOjEJxy-fYialzLS3Ft-7" vertex="1">
                    <mxGeometry x="54" width="90" height="140" as="geometry"/>
                </mxCell>
                <mxCell id="gBPq_-wyO7PmApsnCxw0-89" value="&lt;span style=&quot;font-size: 6px;&quot;&gt;sel&lt;/span&gt;" style="text;html=1;strokeColor=none;fillColor=none;align=center;verticalAlign=middle;whiteSpace=wrap;rounded=0;" parent="QYOjEJxy-fYialzLS3Ft-7" vertex="1">
                    <mxGeometry y="60" width="50" height="20" as="geometry"/>
                </mxCell>
                <mxCell id="gBPq_-wyO7PmApsnCxw0-90" value="&lt;font style=&quot;font-size: 6px;&quot;&gt;output&lt;/font&gt;" style="text;html=1;strokeColor=none;fillColor=none;align=center;verticalAlign=middle;whiteSpace=wrap;rounded=0;" parent="QYOjEJxy-fYialzLS3Ft-7" vertex="1">
                    <mxGeometry x="139" y="10" width="50" height="20" as="geometry"/>
                </mxCell>
                <mxCell id="gBPq_-wyO7PmApsnCxw0-94" value="&lt;span style=&quot;font-size: 10px;&quot;&gt;LOGIC UNIT&lt;/span&gt;" style="text;html=1;strokeColor=none;fillColor=none;align=center;verticalAlign=middle;whiteSpace=wrap;rounded=0;fontSize=6;" parent="QYOjEJxy-fYialzLS3Ft-7" vertex="1">
                    <mxGeometry x="69" y="55" width="60" height="30" as="geometry"/>
                </mxCell>
                <mxCell id="gBPq_-wyO7PmApsnCxw0-99" value="" style="endArrow=classic;html=1;rounded=0;" parent="QYOjEJxy-fYialzLS3Ft-7" edge="1">
                    <mxGeometry width="50" height="50" relative="1" as="geometry">
                        <mxPoint x="144" y="29.769999999999982" as="sourcePoint"/>
                        <mxPoint x="192" y="29.769999999999982" as="targetPoint"/>
                        <Array as="points"/>
                    </mxGeometry>
                </mxCell>
                <mxCell id="gBPq_-wyO7PmApsnCxw0-105" value="" style="endArrow=classic;html=1;rounded=0;" parent="QYOjEJxy-fYialzLS3Ft-7" edge="1">
                    <mxGeometry width="50" height="50" relative="1" as="geometry">
                        <mxPoint x="5" y="80" as="sourcePoint"/>
                        <mxPoint x="53" y="80" as="targetPoint"/>
                        <Array as="points"/>
                    </mxGeometry>
                </mxCell>
                <mxCell id="Kh1ujmrubnzrCM77vEyY-64" value="&lt;span style=&quot;font-size: 6px;&quot;&gt;operand_A&lt;/span&gt;" style="text;html=1;strokeColor=none;fillColor=none;align=center;verticalAlign=middle;whiteSpace=wrap;rounded=0;" parent="QYOjEJxy-fYialzLS3Ft-7" vertex="1">
                    <mxGeometry x="2" width="50" height="20" as="geometry"/>
                </mxCell>
                <mxCell id="Kh1ujmrubnzrCM77vEyY-65" value="&lt;span style=&quot;font-size: 6px;&quot;&gt;operand_B&lt;/span&gt;" style="text;html=1;strokeColor=none;fillColor=none;align=center;verticalAlign=middle;whiteSpace=wrap;rounded=0;" parent="QYOjEJxy-fYialzLS3Ft-7" vertex="1">
                    <mxGeometry x="2" y="30" width="50" height="20" as="geometry"/>
                </mxCell>
                <mxCell id="Kh1ujmrubnzrCM77vEyY-66" value="" style="endArrow=classic;html=1;rounded=0;" parent="QYOjEJxy-fYialzLS3Ft-7" edge="1">
                    <mxGeometry width="50" height="50" relative="1" as="geometry">
                        <mxPoint x="4" y="19.769999999999868" as="sourcePoint"/>
                        <mxPoint x="52" y="19.769999999999868" as="targetPoint"/>
                        <Array as="points"/>
                    </mxGeometry>
                </mxCell>
                <mxCell id="Kh1ujmrubnzrCM77vEyY-67" value="" style="endArrow=classic;html=1;rounded=0;" parent="QYOjEJxy-fYialzLS3Ft-7" edge="1">
                    <mxGeometry width="50" height="50" relative="1" as="geometry">
                        <mxPoint x="3" y="49.76999999999987" as="sourcePoint"/>
                        <mxPoint x="51" y="49.76999999999987" as="targetPoint"/>
                        <Array as="points"/>
                    </mxGeometry>
                </mxCell>
                <mxCell id="QYOjEJxy-fYialzLS3Ft-8" value="" style="group" parent="1" vertex="1" connectable="0">
                    <mxGeometry x="46" y="540" width="194" height="140" as="geometry"/>
                </mxCell>
                <mxCell id="Kh1ujmrubnzrCM77vEyY-3" value="" style="rounded=0;whiteSpace=wrap;html=1;" parent="QYOjEJxy-fYialzLS3Ft-8" vertex="1">
                    <mxGeometry x="54" width="90" height="140" as="geometry"/>
                </mxCell>
                <mxCell id="Kh1ujmrubnzrCM77vEyY-6" value="&lt;span style=&quot;font-size: 6px;&quot;&gt;c_in&lt;/span&gt;" style="text;html=1;strokeColor=none;fillColor=none;align=center;verticalAlign=middle;whiteSpace=wrap;rounded=0;" parent="QYOjEJxy-fYialzLS3Ft-8" vertex="1">
                    <mxGeometry y="59" width="50" height="20" as="geometry"/>
                </mxCell>
                <mxCell id="Kh1ujmrubnzrCM77vEyY-7" value="&lt;font style=&quot;font-size: 6px;&quot;&gt;c_out&lt;/font&gt;" style="text;html=1;strokeColor=none;fillColor=none;align=center;verticalAlign=middle;whiteSpace=wrap;rounded=0;" parent="QYOjEJxy-fYialzLS3Ft-8" vertex="1">
                    <mxGeometry x="139" y="10" width="50" height="20" as="geometry"/>
                </mxCell>
                <mxCell id="Kh1ujmrubnzrCM77vEyY-8" value="&lt;font style=&quot;font-size: 6px;&quot;&gt;sum_sub&lt;/font&gt;" style="text;html=1;strokeColor=none;fillColor=none;align=center;verticalAlign=middle;whiteSpace=wrap;rounded=0;" parent="QYOjEJxy-fYialzLS3Ft-8" vertex="1">
                    <mxGeometry x="144" y="39" width="50" height="20" as="geometry"/>
                </mxCell>
                <mxCell id="Kh1ujmrubnzrCM77vEyY-11" value="&lt;span style=&quot;font-size: 10px;&quot;&gt;ADDER SUBTRACTOR&lt;br&gt;&lt;/span&gt;" style="text;html=1;strokeColor=none;fillColor=none;align=center;verticalAlign=middle;whiteSpace=wrap;rounded=0;fontSize=6;" parent="QYOjEJxy-fYialzLS3Ft-8" vertex="1">
                    <mxGeometry x="69" y="55" width="60" height="30" as="geometry"/>
                </mxCell>
                <mxCell id="Kh1ujmrubnzrCM77vEyY-16" value="" style="endArrow=classic;html=1;rounded=0;" parent="QYOjEJxy-fYialzLS3Ft-8" edge="1">
                    <mxGeometry width="50" height="50" relative="1" as="geometry">
                        <mxPoint x="144" y="29.769999999999868" as="sourcePoint"/>
                        <mxPoint x="192" y="29.769999999999868" as="targetPoint"/>
                        <Array as="points"/>
                    </mxGeometry>
                </mxCell>
                <mxCell id="Kh1ujmrubnzrCM77vEyY-17" value="" style="endArrow=classic;html=1;rounded=0;" parent="QYOjEJxy-fYialzLS3Ft-8" edge="1">
                    <mxGeometry width="50" height="50" relative="1" as="geometry">
                        <mxPoint x="144" y="59.76999999999987" as="sourcePoint"/>
                        <mxPoint x="192" y="59.76999999999987" as="targetPoint"/>
                        <Array as="points"/>
                    </mxGeometry>
                </mxCell>
                <mxCell id="Kh1ujmrubnzrCM77vEyY-22" value="" style="endArrow=classic;html=1;rounded=0;" parent="QYOjEJxy-fYialzLS3Ft-8" edge="1">
                    <mxGeometry width="50" height="50" relative="1" as="geometry">
                        <mxPoint x="5" y="81" as="sourcePoint"/>
                        <mxPoint x="53" y="81" as="targetPoint"/>
                        <Array as="points"/>
                    </mxGeometry>
                </mxCell>
                <mxCell id="Kh1ujmrubnzrCM77vEyY-52" value="&lt;span style=&quot;font-size: 6px;&quot;&gt;operand_A&lt;/span&gt;" style="text;html=1;strokeColor=none;fillColor=none;align=center;verticalAlign=middle;whiteSpace=wrap;rounded=0;" parent="QYOjEJxy-fYialzLS3Ft-8" vertex="1">
                    <mxGeometry x="4" width="50" height="20" as="geometry"/>
                </mxCell>
                <mxCell id="Kh1ujmrubnzrCM77vEyY-53" value="&lt;span style=&quot;font-size: 6px;&quot;&gt;operand_B&lt;/span&gt;" style="text;html=1;strokeColor=none;fillColor=none;align=center;verticalAlign=middle;whiteSpace=wrap;rounded=0;" parent="QYOjEJxy-fYialzLS3Ft-8" vertex="1">
                    <mxGeometry x="4" y="30" width="50" height="20" as="geometry"/>
                </mxCell>
                <mxCell id="Kh1ujmrubnzrCM77vEyY-54" value="" style="endArrow=classic;html=1;rounded=0;" parent="QYOjEJxy-fYialzLS3Ft-8" edge="1">
                    <mxGeometry width="50" height="50" relative="1" as="geometry">
                        <mxPoint x="6" y="19.769999999999868" as="sourcePoint"/>
                        <mxPoint x="54" y="19.769999999999868" as="targetPoint"/>
                        <Array as="points"/>
                    </mxGeometry>
                </mxCell>
                <mxCell id="Kh1ujmrubnzrCM77vEyY-55" value="" style="endArrow=classic;html=1;rounded=0;" parent="QYOjEJxy-fYialzLS3Ft-8" edge="1">
                    <mxGeometry width="50" height="50" relative="1" as="geometry">
                        <mxPoint x="5" y="49.76999999999987" as="sourcePoint"/>
                        <mxPoint x="53" y="49.76999999999987" as="targetPoint"/>
                        <Array as="points"/>
                    </mxGeometry>
                </mxCell>
                <mxCell id="QYOjEJxy-fYialzLS3Ft-9" value="" style="group" parent="1" vertex="1" connectable="0">
                    <mxGeometry x="310" y="540" width="188" height="141" as="geometry"/>
                </mxCell>
                <mxCell id="Kh1ujmrubnzrCM77vEyY-24" value="" style="rounded=0;whiteSpace=wrap;html=1;" parent="QYOjEJxy-fYialzLS3Ft-9" vertex="1">
                    <mxGeometry x="50" y="1" width="90" height="140" as="geometry"/>
                </mxCell>
                <mxCell id="Kh1ujmrubnzrCM77vEyY-28" value="&lt;font style=&quot;font-size: 6px;&quot;&gt;output&lt;/font&gt;" style="text;html=1;strokeColor=none;fillColor=none;align=center;verticalAlign=middle;whiteSpace=wrap;rounded=0;" parent="QYOjEJxy-fYialzLS3Ft-9" vertex="1">
                    <mxGeometry x="135" y="11" width="50" height="20" as="geometry"/>
                </mxCell>
                <mxCell id="Kh1ujmrubnzrCM77vEyY-32" value="&lt;span style=&quot;font-size: 10px;&quot;&gt;MULTIPLIER&lt;br&gt;&lt;/span&gt;" style="text;html=1;strokeColor=none;fillColor=none;align=center;verticalAlign=middle;whiteSpace=wrap;rounded=0;fontSize=6;" parent="QYOjEJxy-fYialzLS3Ft-9" vertex="1">
                    <mxGeometry x="65" y="56" width="60" height="30" as="geometry"/>
                </mxCell>
                <mxCell id="Kh1ujmrubnzrCM77vEyY-37" value="" style="endArrow=classic;html=1;rounded=0;" parent="QYOjEJxy-fYialzLS3Ft-9" edge="1">
                    <mxGeometry width="50" height="50" relative="1" as="geometry">
                        <mxPoint x="140" y="30.769999999999868" as="sourcePoint"/>
                        <mxPoint x="188" y="30.769999999999868" as="targetPoint"/>
                        <Array as="points"/>
                    </mxGeometry>
                </mxCell>
                <mxCell id="Kh1ujmrubnzrCM77vEyY-56" value="&lt;span style=&quot;font-size: 6px;&quot;&gt;operand_A&lt;/span&gt;" style="text;html=1;strokeColor=none;fillColor=none;align=center;verticalAlign=middle;whiteSpace=wrap;rounded=0;" parent="QYOjEJxy-fYialzLS3Ft-9" vertex="1">
                    <mxGeometry width="50" height="20" as="geometry"/>
                </mxCell>
                <mxCell id="Kh1ujmrubnzrCM77vEyY-57" value="&lt;span style=&quot;font-size: 6px;&quot;&gt;operand_B&lt;/span&gt;" style="text;html=1;strokeColor=none;fillColor=none;align=center;verticalAlign=middle;whiteSpace=wrap;rounded=0;" parent="QYOjEJxy-fYialzLS3Ft-9" vertex="1">
                    <mxGeometry y="30" width="50" height="20" as="geometry"/>
                </mxCell>
                <mxCell id="Kh1ujmrubnzrCM77vEyY-58" value="" style="endArrow=classic;html=1;rounded=0;" parent="QYOjEJxy-fYialzLS3Ft-9" edge="1">
                    <mxGeometry width="50" height="50" relative="1" as="geometry">
                        <mxPoint x="2" y="19.769999999999868" as="sourcePoint"/>
                        <mxPoint x="50" y="19.769999999999868" as="targetPoint"/>
                        <Array as="points"/>
                    </mxGeometry>
                </mxCell>
                <mxCell id="Kh1ujmrubnzrCM77vEyY-59" value="" style="endArrow=classic;html=1;rounded=0;" parent="QYOjEJxy-fYialzLS3Ft-9" edge="1">
                    <mxGeometry width="50" height="50" relative="1" as="geometry">
                        <mxPoint x="1" y="49.76999999999987" as="sourcePoint"/>
                        <mxPoint x="49" y="49.76999999999987" as="targetPoint"/>
                        <Array as="points"/>
                    </mxGeometry>
                </mxCell>
                <mxCell id="QYOjEJxy-fYialzLS3Ft-10" value="" style="group" parent="1" vertex="1" connectable="0">
                    <mxGeometry x="593.87" y="480" width="145.5" height="266.255" as="geometry"/>
                </mxCell>
                <mxCell id="Kh1ujmrubnzrCM77vEyY-1" value="MUX&amp;nbsp;&lt;br&gt;ALU" style="shape=trapezoid;perimeter=trapezoidPerimeter;whiteSpace=wrap;html=1;fixedSize=1;rotation=90;" parent="QYOjEJxy-fYialzLS3Ft-10" vertex="1">
                    <mxGeometry x="-33.870000000000005" y="134.38" width="223.75" height="40" as="geometry"/>
                </mxCell>
                <mxCell id="Kh1ujmrubnzrCM77vEyY-69" value="&lt;font style=&quot;font-size: 6px;&quot;&gt;output&lt;/font&gt;" style="text;html=1;strokeColor=none;fillColor=none;align=center;verticalAlign=middle;whiteSpace=wrap;rounded=0;" parent="QYOjEJxy-fYialzLS3Ft-10" vertex="1">
                    <mxGeometry x="92.5" y="90" width="50" height="20" as="geometry"/>
                </mxCell>
                <mxCell id="Kh1ujmrubnzrCM77vEyY-70" value="" style="endArrow=classic;html=1;rounded=0;" parent="QYOjEJxy-fYialzLS3Ft-10" edge="1">
                    <mxGeometry width="50" height="50" relative="1" as="geometry">
                        <mxPoint x="97.5" y="109.76999999999998" as="sourcePoint"/>
                        <mxPoint x="145.5" y="109.76999999999998" as="targetPoint"/>
                        <Array as="points"/>
                    </mxGeometry>
                </mxCell>
                <mxCell id="Kh1ujmrubnzrCM77vEyY-71" value="&lt;span style=&quot;font-size: 6px;&quot;&gt;logical&lt;/span&gt;" style="text;html=1;strokeColor=none;fillColor=none;align=center;verticalAlign=middle;whiteSpace=wrap;rounded=0;" parent="QYOjEJxy-fYialzLS3Ft-10" vertex="1">
                    <mxGeometry x="4" y="69.43000000000006" width="50" height="20" as="geometry"/>
                </mxCell>
                <mxCell id="Kh1ujmrubnzrCM77vEyY-72" value="" style="endArrow=classic;html=1;rounded=0;" parent="QYOjEJxy-fYialzLS3Ft-10" edge="1">
                    <mxGeometry width="50" height="50" relative="1" as="geometry">
                        <mxPoint x="9" y="91.43000000000006" as="sourcePoint"/>
                        <mxPoint x="57" y="91.43000000000006" as="targetPoint"/>
                        <Array as="points"/>
                    </mxGeometry>
                </mxCell>
                <mxCell id="Kh1ujmrubnzrCM77vEyY-73" value="&lt;span style=&quot;font-size: 6px;&quot;&gt;add_or_sub&lt;/span&gt;" style="text;html=1;strokeColor=none;fillColor=none;align=center;verticalAlign=middle;whiteSpace=wrap;rounded=0;" parent="QYOjEJxy-fYialzLS3Ft-10" vertex="1">
                    <mxGeometry x="8" y="28.430000000000064" width="50" height="20" as="geometry"/>
                </mxCell>
                <mxCell id="Kh1ujmrubnzrCM77vEyY-74" value="&lt;span style=&quot;font-size: 6px;&quot;&gt;multiplication&lt;/span&gt;" style="text;html=1;strokeColor=none;fillColor=none;align=center;verticalAlign=middle;whiteSpace=wrap;rounded=0;" parent="QYOjEJxy-fYialzLS3Ft-10" vertex="1">
                    <mxGeometry x="8" y="51.430000000000064" width="50" height="20" as="geometry"/>
                </mxCell>
                <mxCell id="Kh1ujmrubnzrCM77vEyY-75" value="" style="endArrow=classic;html=1;rounded=0;" parent="QYOjEJxy-fYialzLS3Ft-10" edge="1">
                    <mxGeometry width="50" height="50" relative="1" as="geometry">
                        <mxPoint x="10" y="48.19999999999982" as="sourcePoint"/>
                        <mxPoint x="58" y="48.19999999999982" as="targetPoint"/>
                        <Array as="points"/>
                    </mxGeometry>
                </mxCell>
                <mxCell id="Kh1ujmrubnzrCM77vEyY-76" value="" style="endArrow=classic;html=1;rounded=0;" parent="QYOjEJxy-fYialzLS3Ft-10" edge="1">
                    <mxGeometry width="50" height="50" relative="1" as="geometry">
                        <mxPoint x="9" y="71.20000000000005" as="sourcePoint"/>
                        <mxPoint x="57" y="71.20000000000005" as="targetPoint"/>
                        <Array as="points"/>
                    </mxGeometry>
                </mxCell>
                <mxCell id="Kh1ujmrubnzrCM77vEyY-77" value="&lt;span style=&quot;font-size: 6px;&quot;&gt;greater_then&lt;/span&gt;" style="text;html=1;strokeColor=none;fillColor=none;align=center;verticalAlign=middle;whiteSpace=wrap;rounded=0;" parent="QYOjEJxy-fYialzLS3Ft-10" vertex="1">
                    <mxGeometry x="4" y="130.43000000000006" width="50" height="20" as="geometry"/>
                </mxCell>
                <mxCell id="Kh1ujmrubnzrCM77vEyY-78" value="" style="endArrow=classic;html=1;rounded=0;" parent="QYOjEJxy-fYialzLS3Ft-10" edge="1">
                    <mxGeometry width="50" height="50" relative="1" as="geometry">
                        <mxPoint x="9" y="152.43000000000006" as="sourcePoint"/>
                        <mxPoint x="57" y="152.43000000000006" as="targetPoint"/>
                        <Array as="points"/>
                    </mxGeometry>
                </mxCell>
                <mxCell id="Kh1ujmrubnzrCM77vEyY-79" value="&lt;span style=&quot;font-size: 6px;&quot;&gt;shift&lt;/span&gt;" style="text;html=1;strokeColor=none;fillColor=none;align=center;verticalAlign=middle;whiteSpace=wrap;rounded=0;" parent="QYOjEJxy-fYialzLS3Ft-10" vertex="1">
                    <mxGeometry x="8" y="89.43000000000006" width="50" height="20" as="geometry"/>
                </mxCell>
                <mxCell id="Kh1ujmrubnzrCM77vEyY-80" value="&lt;span style=&quot;font-size: 6px;&quot;&gt;load_high_imm&lt;/span&gt;" style="text;html=1;strokeColor=none;fillColor=none;align=center;verticalAlign=middle;whiteSpace=wrap;rounded=0;" parent="QYOjEJxy-fYialzLS3Ft-10" vertex="1">
                    <mxGeometry x="8" y="112.43000000000006" width="50" height="20" as="geometry"/>
                </mxCell>
                <mxCell id="Kh1ujmrubnzrCM77vEyY-81" value="" style="endArrow=classic;html=1;rounded=0;" parent="QYOjEJxy-fYialzLS3Ft-10" edge="1">
                    <mxGeometry width="50" height="50" relative="1" as="geometry">
                        <mxPoint x="10" y="109.19999999999959" as="sourcePoint"/>
                        <mxPoint x="58" y="109.19999999999959" as="targetPoint"/>
                        <Array as="points"/>
                    </mxGeometry>
                </mxCell>
                <mxCell id="Kh1ujmrubnzrCM77vEyY-82" value="" style="endArrow=classic;html=1;rounded=0;" parent="QYOjEJxy-fYialzLS3Ft-10" edge="1">
                    <mxGeometry width="50" height="50" relative="1" as="geometry">
                        <mxPoint x="9" y="132.20000000000005" as="sourcePoint"/>
                        <mxPoint x="57" y="132.20000000000005" as="targetPoint"/>
                        <Array as="points"/>
                    </mxGeometry>
                </mxCell>
                <mxCell id="Kh1ujmrubnzrCM77vEyY-83" value="&lt;span style=&quot;font-size: 6px;&quot;&gt;less_equal_then&lt;/span&gt;" style="text;html=1;strokeColor=none;fillColor=none;align=center;verticalAlign=middle;whiteSpace=wrap;rounded=0;" parent="QYOjEJxy-fYialzLS3Ft-10" vertex="1">
                    <mxGeometry x="4" y="191.43000000000006" width="50" height="20" as="geometry"/>
                </mxCell>
                <mxCell id="Kh1ujmrubnzrCM77vEyY-84" value="" style="endArrow=classic;html=1;rounded=0;" parent="QYOjEJxy-fYialzLS3Ft-10" edge="1">
                    <mxGeometry width="50" height="50" relative="1" as="geometry">
                        <mxPoint x="9" y="213.43000000000006" as="sourcePoint"/>
                        <mxPoint x="57" y="213.43000000000006" as="targetPoint"/>
                        <Array as="points"/>
                    </mxGeometry>
                </mxCell>
                <mxCell id="Kh1ujmrubnzrCM77vEyY-85" value="&lt;span style=&quot;font-size: 6px;&quot;&gt;greater_equal_then&lt;/span&gt;" style="text;html=1;strokeColor=none;fillColor=none;align=center;verticalAlign=middle;whiteSpace=wrap;rounded=0;" parent="QYOjEJxy-fYialzLS3Ft-10" vertex="1">
                    <mxGeometry y="150.43000000000006" width="50" height="20" as="geometry"/>
                </mxCell>
                <mxCell id="Kh1ujmrubnzrCM77vEyY-86" value="&lt;span style=&quot;font-size: 6px;&quot;&gt;less_then&lt;/span&gt;" style="text;html=1;strokeColor=none;fillColor=none;align=center;verticalAlign=middle;whiteSpace=wrap;rounded=0;" parent="QYOjEJxy-fYialzLS3Ft-10" vertex="1">
                    <mxGeometry x="8" y="173.43000000000006" width="50" height="20" as="geometry"/>
                </mxCell>
                <mxCell id="Kh1ujmrubnzrCM77vEyY-87" value="" style="endArrow=classic;html=1;rounded=0;" parent="QYOjEJxy-fYialzLS3Ft-10" edge="1">
                    <mxGeometry width="50" height="50" relative="1" as="geometry">
                        <mxPoint x="10" y="170.1999999999996" as="sourcePoint"/>
                        <mxPoint x="58" y="170.1999999999996" as="targetPoint"/>
                        <Array as="points"/>
                    </mxGeometry>
                </mxCell>
                <mxCell id="Kh1ujmrubnzrCM77vEyY-88" value="" style="endArrow=classic;html=1;rounded=0;" parent="QYOjEJxy-fYialzLS3Ft-10" edge="1">
                    <mxGeometry width="50" height="50" relative="1" as="geometry">
                        <mxPoint x="9" y="193.20000000000005" as="sourcePoint"/>
                        <mxPoint x="57" y="193.20000000000005" as="targetPoint"/>
                        <Array as="points"/>
                    </mxGeometry>
                </mxCell>
                <mxCell id="Kh1ujmrubnzrCM77vEyY-91" value="&lt;span style=&quot;font-size: 6px;&quot;&gt;equal&lt;/span&gt;" style="text;html=1;strokeColor=none;fillColor=none;align=center;verticalAlign=middle;whiteSpace=wrap;rounded=0;" parent="QYOjEJxy-fYialzLS3Ft-10" vertex="1">
                    <mxGeometry x="8" y="211.43000000000006" width="50" height="20" as="geometry"/>
                </mxCell>
                <mxCell id="Kh1ujmrubnzrCM77vEyY-92" value="&lt;span style=&quot;font-size: 6px;&quot;&gt;not_equal&lt;/span&gt;" style="text;html=1;strokeColor=none;fillColor=none;align=center;verticalAlign=middle;whiteSpace=wrap;rounded=0;" parent="QYOjEJxy-fYialzLS3Ft-10" vertex="1">
                    <mxGeometry x="8" y="234.43000000000006" width="50" height="20" as="geometry"/>
                </mxCell>
                <mxCell id="Kh1ujmrubnzrCM77vEyY-93" value="" style="endArrow=classic;html=1;rounded=0;" parent="QYOjEJxy-fYialzLS3Ft-10" edge="1">
                    <mxGeometry width="50" height="50" relative="1" as="geometry">
                        <mxPoint x="10" y="231.1999999999996" as="sourcePoint"/>
                        <mxPoint x="58" y="231.1999999999996" as="targetPoint"/>
                        <Array as="points"/>
                    </mxGeometry>
                </mxCell>
                <mxCell id="Kh1ujmrubnzrCM77vEyY-94" value="" style="endArrow=classic;html=1;rounded=0;" parent="QYOjEJxy-fYialzLS3Ft-10" edge="1">
                    <mxGeometry width="50" height="50" relative="1" as="geometry">
                        <mxPoint x="9" y="254.20000000000005" as="sourcePoint"/>
                        <mxPoint x="57" y="254.20000000000005" as="targetPoint"/>
                        <Array as="points"/>
                    </mxGeometry>
                </mxCell>
                <mxCell id="QYOjEJxy-fYialzLS3Ft-1" value="" style="endArrow=classic;html=1;rounded=0;" parent="QYOjEJxy-fYialzLS3Ft-10" edge="1">
                    <mxGeometry width="50" height="50" relative="1" as="geometry">
                        <mxPoint x="77.72" y="21.42999999999995" as="sourcePoint"/>
                        <mxPoint x="77.72" y="51.42999999999995" as="targetPoint"/>
                        <Array as="points">
                            <mxPoint x="77.72" y="41.42999999999995"/>
                        </Array>
                    </mxGeometry>
                </mxCell>
                <mxCell id="QYOjEJxy-fYialzLS3Ft-2" value="&lt;font style=&quot;font-size: 6px;&quot;&gt;sel&lt;/font&gt;" style="text;html=1;strokeColor=none;fillColor=none;align=center;verticalAlign=middle;whiteSpace=wrap;rounded=0;" parent="QYOjEJxy-fYialzLS3Ft-10" vertex="1">
                    <mxGeometry x="53" width="50" height="20" as="geometry"/>
                </mxCell>
            </root>
        </mxGraphModel>
    </diagram>
</mxfile>